<svg xmlns="http://www.w3.org/2000/svg" viewBox="0 0 900 300" width="900" height="300"><style>.a{fill:none;stroke:#000000;stroke-linecap:round;stroke-linejoin:round;stroke-width:2.5}</style><path class="a" d="m482.3 186.2h-81.8v-95.3l40.9-40.2 40.9 40.2z"></path><path fill-rule="evenodd" class="a" d="m441.4 50.7h92.5l41 39.6h-91.9"></path><path fill-rule="evenodd" class="a" d="m574.9 89.3v95.9h-92.6"></path><path fill-rule="evenodd" class="a" d="m401.1 93.3c0 0-11.7-50.9-76.1-78.3"></path><path class="a" d="m365.8 40.4c0 0-18.3-12.1-37.6 6.8 0 0 20.8 12.3 37.6-6.8z"></path><path class="a" d="m395 21.8c0 0-19.3 10.4-11.9 36.4 0 0 20.8-12.5 11.9-36.4z"></path><path fill-rule="evenodd" class="a" d="m383.1 58.2l6.5-20"></path><path fill-rule="evenodd" class="a" d="m365.2 40l-19 3.6"></path><path class="a" d="m543.5 186.2h-29.8v-56.7c0-8.2 6.7-14.9 14.9-14.9 8.2 0 14.9 6.7 14.9 14.9z"></path><path fill-rule="evenodd" class="a" d="m525.3 186.2h9.7v-56.7c0-6.4-4-11.8-9.7-13.9"></path><path fill-rule="evenodd" d="m142.1 220h-23v19h-2.5v-39.3h2.5v18.1h23v-18.1h2.5v39.3h-2.5zm39.4-18.1h-17.4v16.4h15.7v2.1h-15.7v16.5h17.4v2.1h-19.9v-39.3h19.9zm37.4 27.1h-18.7l-3.7 10.1h-2.8l14.5-38.4h2.8l14.4 38.4h-2.8zm-9.3-25l-8.5 22.9h17zm40.9-4.2c9 0 13.1 4.7 13.1 11.2 0 5.9-3.3 10.2-10 11.1l10.3 17h-3l-10.1-16.7h-8.6v16.7h-2.5v-39.3zm0 2.2h-8.3v18.2h8.4c7.2 0 10.3-3.9 10.3-9.2 0-5.5-2.9-9-10.4-9zm25-2.2h24.9v2.1h-11.2v37.2h-2.5v-37.2h-11.2zm64.6 20.3h-22.9v19h-2.6v-39.3h2.6v18.2h22.9v-18.2h2.5v39.3h-2.5zm64.8 9h-18.6l-3.8 10.1h-2.7l14.4-38.5h2.8l14.4 38.5h-2.7zm-9.3-25.1l-8.6 22.9h17.1zm58.1-4.1v39.2h-2.5l-23.1-35.1v35.1h-2.5v-39.2h2.5l23.1 35v-35zm49.7 19.6c0 12.4-7.4 19.6-20.8 19.6h-11v-39.3h11c13.4 0 20.8 7.4 20.8 19.7zm-20.8 17.5c12.1 0 18.2-6.6 18.2-17.5 0-10.8-6.1-17.5-18.2-17.5h-8.5v35zm84.5-16.9h-23v19h-2.5v-39.3h2.5v18.2h23v-18.2h2.5v39.3h-2.5zm41.8 9h-18.7l-3.7 10.1h-2.8l14.5-38.4h2.8l14.4 38.4h-2.8zm-9.3-25l-8.5 22.9h17zm40.9-4.2c9 0 13.1 4.7 13.1 11.2 0 5.9-3.3 10.2-10 11.1l10.3 17h-3l-10.1-16.8h-8.6v16.8h-2.6v-39.3zm0 2.2h-8.2v18.2h8.4c7.2 0 10.3-3.9 10.3-9.2 0-5.5-2.9-9-10.5-9zm41.7 37.1h-12.5v-39.3h12.3c8.2 0 11.9 4.3 11.9 9.7 0 5.4-3.4 8.2-7.2 9.2 4.5 0.8 8.1 4.8 8.1 9.8 0 5.9-4.2 10.6-12.6 10.6zm-0.4-37.1h-9.5v15.6h9.8c6 0 9.2-3 9.2-7.9 0-4.5-2.9-7.7-9.5-7.7zm0.1 17.8h-9.6v17.1h9.8c6.3 0 10.1-3.3 10.1-8.5 0-5.2-3.9-8.6-10.3-8.6zm45.4 19.7c-11 0-19.1-8.3-19.1-20 0-11.8 8.1-20.1 19.1-20.1 10.9 0 19.1 8.3 19.1 20.1 0 11.7-8.2 20-19.1 20zm0-2.2c9.2 0 16.4-6.8 16.4-17.8 0-11.1-7.2-17.9-16.4-17.9-9.3 0-16.6 6.8-16.6 17.9 0 11 7.3 17.8 16.6 17.8zm45.2-37.5c9.1 0 13.1 4.7 13.1 11.2 0 5.9-3.3 10.2-9.9 11.1l10.3 17h-3l-10.1-16.8h-8.6v16.8h-2.6v-39.3zm0 2.2h-8.3v18.2h8.4c7.3 0 10.4-3.9 10.4-9.2 0-5.5-2.9-9-10.5-9z"></path><path fill-rule="evenodd" d="m381.3 270.3h-20.1v16.7h-2.2v-34.4h2.2v15.9h20.1v-15.9h2.2v34.4h-2.2zm32.1 17.1c-9.6 0-16.8-7.3-16.8-17.6 0-10.3 7.2-17.5 16.8-17.5 9.6 0 16.7 7.2 16.7 17.5 0 10.3-7.1 17.6-16.7 17.6zm0-2c8 0 14.4-5.9 14.4-15.6 0-9.7-6.4-15.6-14.4-15.6-8.1 0-14.5 5.9-14.5 15.6 0 9.7 6.4 15.6 14.5 15.6zm30.6-32.1h2.4l13.7 30.8 13.7-30.8h2.3v33.7h-2.2v-29.1l-12.9 29.1h-1.8l-13-29.1v29.1h-2.2zm64.4 1.1h-15.2v14.3h13.7v1.9h-13.7v14.5h15.2v1.8h-17.4v-34.4h17.4zm23.6 32.9c-6.9 0-11-4-11.4-8.8h2.3c0.4 2.8 2.6 6.9 9.1 6.9 5.2 0 8.3-3.1 8.3-7.1 0-11.1-19.2-4.1-19.2-17.2 0-4.9 4.2-8.9 10.6-8.9 6.4 0 10 3.8 10.7 7.8h-2.4c-0.5-2.4-3-5.9-8.4-5.9-4.5 0-8.3 2.6-8.3 6.9 0 11.2 19.2 4.4 19.2 17.3 0 4.4-3.5 9-10.5 9z"></path></svg>