<?xml version="1.0" encoding="UTF-8"?>
<svg version="1.1" xmlns="http://www.w3.org/2000/svg" width="4320" height="4320">
<path d="M0 0 C97.68 0 195.36 0 296 0 C296 571.89 296 1143.78 296 1733 C298.97 1733.99 301.94 1734.98 305 1736 C308.68794765 1737.42452235 312.31104053 1738.98846358 315.9375 1740.5625 C316.9380542 1740.99651123 317.9386084 1741.43052246 318.96948242 1741.87768555 C326.88070744 1745.37427963 334.41752867 1749.33808242 341.89453125 1753.67578125 C344.82801054 1755.37349086 347.80533692 1756.90888796 350.8515625 1758.39453125 C356.28759655 1761.08052873 361.41919954 1764.17035725 366.5625 1767.375 C367.88411133 1768.18324219 367.88411133 1768.18324219 369.23242188 1769.0078125 C374.39197302 1772.20635343 379.18308642 1775.64290699 383.92529297 1779.42871094 C385.77824582 1780.83205343 387.59659759 1781.99797778 389.62890625 1783.1171875 C393.32951314 1785.18403862 396.59311031 1787.5370337 399.9375 1790.125 C400.52595703 1790.56714844 401.11441406 1791.00929688 401.72070312 1791.46484375 C403.18748243 1792.59261134 404.59938209 1793.7910456 406 1795 C406 1795.66 406 1796.32 406 1797 C406.56589844 1797.25652344 407.13179687 1797.51304688 407.71484375 1797.77734375 C412.24246178 1800.19981289 416.03597911 1803.76327146 420 1807 C420.94101563 1807.74121094 421.88203125 1808.48242188 422.8515625 1809.24609375 C427.82615221 1813.19972772 432.26030191 1817.14986229 436.328125 1822.03125 C440.48779579 1826.92955392 445.14268661 1831.31549418 450.0625 1835.4375 C453.56860563 1838.45532787 456.21407511 1841.73039496 458.96484375 1845.43359375 C461.41579854 1848.52433712 464.09474341 1851.33265983 466.8125 1854.1875 C471.90279603 1859.58823773 476.24042691 1865.25796084 480.44921875 1871.359375 C482.63679621 1874.52423541 484.95362903 1877.56847976 487.30834961 1880.61010742 C500.55997079 1897.81075904 510.94756735 1916.80836328 521 1936 C521.4115332 1936.78310547 521.82306641 1937.56621094 522.24707031 1938.37304688 C527.12017049 1947.70023603 531.20791125 1957.17152507 535 1967 C537.97 1974.59 540.94 1982.18 544 1990 C836.545 1990.495 836.545 1990.495 1135 1991 C1135 2082.74 1135 2174.48 1135 2269 C938.98 2269.33 742.96 2269.66 541 2270 C536.45291229 2281.30523798 536.45291229 2281.30523798 532.25 2292.6875 C526.68770521 2307.85378423 518.65127913 2321.92036763 510.4609375 2335.79296875 C508.50557111 2339.10855804 506.66155815 2342.46474673 504.875 2345.875 C501.43089994 2352.26134554 497.21560073 2358.11021312 493 2364 C492.1483238 2365.19523149 491.29676288 2366.39054513 490.4453125 2367.5859375 C489.16935114 2369.37581431 487.89166358 2371.16432581 486.60839844 2372.94897461 C483.4479534 2377.34587228 480.38548948 2381.80342679 477.375 2386.3046875 C476.92125 2386.86414062 476.4675 2387.42359375 476 2388 C475.34 2388 474.68 2388 474 2388 C473.77054688 2388.53753906 473.54109375 2389.07507812 473.3046875 2389.62890625 C471.60595881 2392.71611677 469.41319717 2395.28003295 467.125 2397.9375 C466.63306152 2398.51177734 466.14112305 2399.08605469 465.63427734 2399.67773438 C456.90115851 2409.80870583 447.69067092 2419.39988006 438.25 2428.875 C436.9189624 2430.21304688 436.9189624 2430.21304688 435.56103516 2431.578125 C430.53551142 2436.5914166 425.42123024 2441.417364 420 2446 C419.47100098 2446.45068848 418.94200195 2446.90137695 418.39697266 2447.36572266 C417.00242083 2448.54572804 415.59533154 2449.71087034 414.1875 2450.875 C413.27355469 2451.63554687 412.35960937 2452.39609375 411.41796875 2453.1796875 C409 2455 409 2455 406 2456 C405.67 2456.99 405.34 2457.98 405 2459 C402.6640625 2460.76171875 402.6640625 2460.76171875 399.625 2462.6875 C395.52197928 2465.34211081 391.49774867 2468.03967329 387.5625 2470.9375 C378.94707083 2477.24721719 370.43754306 2483.45550106 360.96484375 2488.4296875 C358.1779827 2489.90573248 355.43640878 2491.44798948 352.69873047 2493.01293945 C345.2360705 2497.2715734 337.67499833 2501.32830899 330.0625 2505.3125 C329.10375977 2505.81604004 328.14501953 2506.31958008 327.15722656 2506.83837891 C320.05203326 2510.53668512 312.8865984 2514.20417007 305.25 2516.6875 C304.55390625 2516.91824219 303.8578125 2517.14898438 303.140625 2517.38671875 C300.7947991 2518.05878931 298.39281335 2518.52143733 296 2519 C296 3106.4 296 3693.8 296 4299 C198.32 4299 100.64 4299 0 4299 C0 3712.59 0 3126.18 0 2522 C-3.3 2521.01 -6.6 2520.02 -10 2519 C-22.40541309 2514.43650791 -34.3212017 2509.17379311 -46 2503 C-47.44318604 2502.24541504 -47.44318604 2502.24541504 -48.91552734 2501.47558594 C-68.09641419 2491.42859454 -86.43121361 2480.84478204 -103.58203125 2467.59375 C-106.62846179 2465.24608888 -109.79691858 2463.12956912 -113 2461 C-119.83113718 2455.77928499 -126.19804635 2450.0979492 -132.40844727 2444.16210938 C-134.83748489 2441.86748641 -137.09051462 2439.94215777 -139.921875 2438.1328125 C-144.00983774 2435.30029009 -147.10128869 2431.85289402 -150.4375 2428.1875 C-156.4484498 2421.67622249 -162.57530486 2415.33024617 -168.95092773 2409.17456055 C-172.53907434 2405.6577249 -175.59426978 2402.0063041 -178.54833984 2397.9440918 C-180.34238559 2395.54147049 -182.29293889 2393.31963471 -184.28588867 2391.08178711 C-190.53933912 2384.05877748 -195.77227252 2376.66081231 -200.84716797 2368.76123047 C-202.5747487 2366.12193199 -204.41798346 2363.56752226 -206.25 2361 C-215.89686424 2347.10371776 -224.73238139 2332.53689054 -231.94580078 2317.22753906 C-233.18489056 2314.60932343 -234.44957334 2312.00409965 -235.71484375 2309.3984375 C-249.01979459 2281.92082163 -249.01979459 2281.92082163 -252 2270 C-465.18 2269.67 -678.36 2269.34 -898 2269 C-898 2177.26 -898 2085.52 -898 1991 C-579.715 1990.505 -579.715 1990.505 -255 1990 C-252.85076983 1984.08961703 -250.72355413 1978.20729312 -248.68359375 1972.265625 C-246.16382409 1965.20603342 -243.16943562 1958.44681991 -239.97094727 1951.67578125 C-239.0582689 1949.74103066 -238.15846076 1947.80065403 -237.25976562 1945.859375 C-234.25217894 1939.41481704 -231.05776139 1933.19510341 -227.30200195 1927.14550781 C-225.50344911 1924.18175714 -224.04456628 1921.13414516 -222.5625 1918 C-220.06647329 1912.86658359 -217.24998243 1908.21621488 -213.875 1903.61328125 C-211.67301598 1900.54426602 -209.64664337 1897.37627769 -207.625 1894.1875 C-198.40245067 1879.74404987 -188.51442136 1865.89812223 -176.96484375 1853.21484375 C-174.70364798 1850.66594117 -172.57342299 1848.02959569 -170.4375 1845.375 C-165.73886643 1839.59825531 -160.79290314 1834.50577664 -155.125 1829.6875 C-152.05140529 1827.04962561 -149.40032863 1824.24925149 -146.75 1821.1875 C-142.50329987 1816.36137101 -137.80861462 1812.31801427 -132.828125 1808.29296875 C-130.55793703 1806.45236055 -128.3610479 1804.576468 -126.1875 1802.625 C-115.97540315 1793.6577662 -105.28418642 1785.59357201 -93.875 1778.22216797 C-91.98658961 1776.9912588 -90.11630899 1775.73678898 -88.25 1774.47265625 C-75.27020733 1765.68370928 -62.11310009 1757.85669133 -48 1751 C-46.06029187 1750.02864538 -44.12426301 1749.05019391 -42.18823242 1748.0715332 C-8.33843455 1731 -8.33843455 1731 0 1731 C0 1159.77 0 588.54 0 0 Z " fill="#05264D" transform="translate(1414,11)"/>
<path d="M0 0 C0.52681694 45.60583854 0.93190692 91.2113542 1.17450258 136.81963736 C1.20326771 142.20796959 1.23303723 147.59629584 1.26342773 152.98461914 C1.26946087 154.0573058 1.27549401 155.12999246 1.28170998 156.23518478 C1.38170482 173.58860821 1.56299649 190.94027345 1.77451431 208.29265494 C1.98985003 226.10726307 2.1174025 243.92095261 2.16403538 261.73680872 C2.19554777 272.72524295 2.29492243 283.70870814 2.48207874 294.69561171 C2.60397527 302.23715674 2.64033732 309.77614634 2.61053168 317.31860418 C2.59583745 321.66806158 2.6177771 326.00886662 2.74172592 330.35676956 C3.42681019 355.63731724 3.42681019 355.63731724 -2.19729495 362.79738307 C-7.53282804 367.56748775 -13.45596342 370.66248373 -19.95930946 373.54943454 C-25.13340008 376.01774134 -29.76846939 379.28473253 -34.5 382.5 C-36.41433103 383.75357402 -38.33073258 385.00399692 -40.25 386.25 C-41.19875 386.86875 -42.1475 387.4875 -43.125 388.125 C-46 390 -48.875 391.875 -51.75 393.75 C-52.6989917 394.36891113 -53.6479834 394.98782227 -54.62573242 395.62548828 C-56.53994473 396.87388054 -58.45416996 398.12225298 -60.3684082 399.37060547 C-65.19773349 402.5200404 -70.02682463 405.66983329 -74.85546875 408.8203125 C-84.71437751 415.25232784 -94.57739302 421.6778956 -104.44873047 428.09082031 C-113.66560343 434.07987401 -122.87101024 440.08648928 -132.07666016 446.09277344 C-136.88401981 449.22916008 -141.69203988 452.36453396 -146.5 455.5 C-148.41666991 456.74999503 -150.33333657 457.99999504 -152.25 459.25 C-202.08333333 491.75 -251.91666667 524.25 -301.75 556.75 C-302.6989917 557.36891113 -303.6479834 557.98782227 -304.62573242 558.62548828 C-306.53994473 559.87388054 -308.45416996 561.12225298 -310.3684082 562.37060547 C-315.19773349 565.5200404 -320.02682463 568.66983329 -324.85546875 571.8203125 C-334.71437751 578.25232784 -344.57739302 584.6778956 -354.44873047 591.09082031 C-363.66560343 597.07987401 -372.87101024 603.08648928 -382.07666016 609.09277344 C-386.88401981 612.22916008 -391.69203988 615.36453396 -396.5 618.5 C-398.41666991 619.74999503 -400.33333657 620.99999504 -402.25 622.25 C-459.75 659.75 -517.25 697.25 -574.75 734.75 C-575.6989917 735.36891113 -576.6479834 735.98782227 -577.62573242 736.62548828 C-579.53994473 737.87388054 -581.45416996 739.12225298 -583.3684082 740.37060547 C-588.19773349 743.5200404 -593.02682463 746.66983329 -597.85546875 749.8203125 C-607.71437751 756.25232784 -617.57739302 762.6778956 -627.44873047 769.09082031 C-636.66560343 775.07987401 -645.87101024 781.08648928 -655.07666016 787.09277344 C-659.88401981 790.22916008 -664.69203988 793.36453396 -669.5 796.5 C-671.41666991 797.74999503 -673.33333657 798.99999504 -675.25 800.25 C-686.75 807.75 -698.25 815.25 -709.75 822.75 C-710.6992334 823.36907227 -711.6484668 823.98814453 -712.62646484 824.62597656 C-714.53822278 825.87276109 -716.45000653 827.11950605 -718.36181641 828.36621094 C-723.22880178 831.54007936 -728.09530126 834.71468863 -732.9609375 837.890625 C-741.33941625 843.35862677 -749.7185266 848.82511221 -758.125 854.25 C-767.0867584 860.03549504 -776.00251911 865.8911932 -784.92285156 871.74023438 C-795.34479169 878.57355569 -805.78018485 885.38604545 -816.22167969 892.18945312 C-820.98200452 895.29161209 -825.74091747 898.39593569 -830.5 901.5 C-832.41666019 902.75000992 -834.33332685 904.00000993 -836.25 905.25 C-837.673125 906.178125 -837.673125 906.178125 -839.125 907.125 C-842 909 -844.875 910.875 -847.75 912.75 C-848.6989917 913.36891113 -849.6479834 913.98782227 -850.62573242 914.62548828 C-852.53994473 915.87388054 -854.45416996 917.12225298 -856.3684082 918.37060547 C-861.19773349 921.5200404 -866.02682463 924.66983329 -870.85546875 927.8203125 C-880.71437751 934.25232784 -890.57739302 940.6778956 -900.44873047 947.09082031 C-909.66560343 953.07987401 -918.87101024 959.08648928 -928.07666016 965.09277344 C-932.88401981 968.22916008 -937.69203988 971.36453396 -942.5 974.5 C-944.41666991 975.74999503 -946.33333657 976.99999504 -948.25 978.25 C-998.08333333 1010.75 -1047.91666667 1043.25 -1097.75 1075.75 C-1098.6989917 1076.36891113 -1099.6479834 1076.98782227 -1100.62573242 1077.62548828 C-1102.53994473 1078.87388054 -1104.45416996 1080.12225298 -1106.3684082 1081.37060547 C-1111.19773349 1084.5200404 -1116.02682463 1087.66983329 -1120.85546875 1090.8203125 C-1130.71437751 1097.25232784 -1140.57739302 1103.6778956 -1150.44873047 1110.09082031 C-1159.66560343 1116.07987401 -1168.87101024 1122.08648928 -1178.07666016 1128.09277344 C-1182.88401981 1131.22916008 -1187.69203988 1134.36453396 -1192.5 1137.5 C-1194.41666991 1138.74999503 -1196.33333657 1139.99999504 -1198.25 1141.25 C-1255.75 1178.75 -1313.25 1216.25 -1370.75 1253.75 C-1371.6989917 1254.36891113 -1372.6479834 1254.98782227 -1373.62573242 1255.62548828 C-1375.53994473 1256.87388054 -1377.45416996 1258.12225298 -1379.3684082 1259.37060547 C-1384.19773349 1262.5200404 -1389.02682463 1265.66983329 -1393.85546875 1268.8203125 C-1403.70075878 1275.24344289 -1413.54610539 1281.66644998 -1423.40917969 1288.06225586 C-1428.01215835 1291.04903046 -1432.60296696 1294.0532554 -1437.18359375 1297.07421875 C-1438.22451172 1297.75871094 -1439.26542969 1298.44320312 -1440.33789062 1299.1484375 C-1442.36113334 1300.47941758 -1444.38207875 1301.8138983 -1446.40039062 1303.15234375 C-1447.31884766 1303.755625 -1448.23730469 1304.35890625 -1449.18359375 1304.98046875 C-1449.99368896 1305.51567139 -1450.80378418 1306.05087402 -1451.63842773 1306.60229492 C-1454 1308 -1454 1308 -1459 1310 C-1459 1467.74 -1459 1625.48 -1459 1788 C-1446.06561847 1779.93214131 -1446.06561847 1779.93214131 -1433.25 1771.6875 C-1431.55080345 1770.57939304 -1429.85158402 1769.47132117 -1428.15234375 1768.36328125 C-1426.87786377 1767.53111084 -1426.87786377 1767.53111084 -1425.57763672 1766.68212891 C-1421.32612386 1763.90765234 -1417.06927692 1761.14139065 -1412.8125 1758.375 C-1411.56714478 1757.56542847 -1411.56714478 1757.56542847 -1410.29663086 1756.73950195 C-1402.89674033 1751.93011855 -1395.48807142 1747.1343777 -1388.07666016 1742.34277344 C-1384.55051684 1740.06276071 -1381.02531191 1737.78129794 -1377.5 1735.5 C-1376.0833377 1734.58332659 -1374.66667103 1733.66665992 -1373.25 1732.75 C-1372.54875 1732.29625 -1371.8475 1731.8425 -1371.125 1731.375 C-1347.74999997 1716.24999998 -1347.74999997 1716.24999998 -1345.62573242 1714.87548828 C-1344.20660689 1713.957221 -1342.78749886 1713.03892665 -1341.3684082 1712.12060547 C-1337.86450403 1709.85320799 -1334.36031405 1707.58625499 -1330.85546875 1705.3203125 C-1323.2306175 1700.38995756 -1315.61192092 1695.45029805 -1308 1690.5 C-1299.69998475 1685.10221018 -1291.39115044 1679.71823375 -1283.07666016 1674.34277344 C-1279.55051684 1672.06276071 -1276.02531191 1669.78129794 -1272.5 1667.5 C-1271.0833377 1666.58332659 -1269.66667103 1665.66665992 -1268.25 1664.75 C-1267.54875 1664.29625 -1266.8475 1663.8425 -1266.125 1663.375 C-1225.75 1637.25 -1225.75 1637.25 -1223.62573242 1635.87548828 C-1222.20660689 1634.957221 -1220.78749886 1634.03892665 -1219.3684082 1633.12060547 C-1215.86450403 1630.85320799 -1212.36031405 1628.58625499 -1208.85546875 1626.3203125 C-1201.2306175 1621.38995756 -1193.61192092 1616.45029805 -1186 1611.5 C-1177.69998475 1606.10221018 -1169.39115044 1600.71823375 -1161.07666016 1595.34277344 C-1157.55051684 1593.06276071 -1154.02531191 1590.78129794 -1150.5 1588.5 C-1149.0833377 1587.58332659 -1147.66667103 1586.66665992 -1146.25 1585.75 C-1145.54875 1585.29625 -1144.8475 1584.8425 -1144.125 1584.375 C-1103.74999997 1558.24999998 -1103.74999997 1558.24999998 -1101.62573242 1556.87548828 C-1100.20660689 1555.957221 -1098.78749886 1555.03892665 -1097.3684082 1554.12060547 C-1093.86450403 1551.85320799 -1090.36031405 1549.58625499 -1086.85546875 1547.3203125 C-1079.2306175 1542.38995756 -1071.61192092 1537.45029805 -1064 1532.5 C-1055.69998475 1527.10221018 -1047.39115044 1521.71823375 -1039.07666016 1516.34277344 C-1035.55051684 1514.06276071 -1032.02531191 1511.78129794 -1028.5 1509.5 C-1027.0833377 1508.58332659 -1025.66667103 1507.66665992 -1024.25 1506.75 C-1023.54875 1506.29625 -1022.8475 1505.8425 -1022.125 1505.375 C-998.75000005 1490.25000003 -998.75000005 1490.25000003 -996.62573242 1488.87548828 C-995.20660689 1487.957221 -993.78749886 1487.03892665 -992.3684082 1486.12060547 C-988.86450403 1483.85320799 -985.36031405 1481.58625499 -981.85546875 1479.3203125 C-974.2306175 1474.38995756 -966.61192092 1469.45029805 -959 1464.5 C-950.69998475 1459.10221018 -942.39115044 1453.71823375 -934.07666016 1448.34277344 C-930.55051684 1446.06276071 -927.02531191 1443.78129794 -923.5 1441.5 C-922.0833377 1440.58332659 -920.66667103 1439.66665992 -919.25 1438.75 C-918.54875 1438.29625 -917.8475 1437.8425 -917.125 1437.375 C-876.75 1411.25 -876.75 1411.25 -874.62573242 1409.87548828 C-873.20660689 1408.957221 -871.78749886 1408.03892665 -870.3684082 1407.12060547 C-866.86450403 1404.85320799 -863.36031405 1402.58625499 -859.85546875 1400.3203125 C-852.2306175 1395.38995756 -844.61192092 1390.45029805 -837 1385.5 C-828.69998475 1380.10221018 -820.39115044 1374.71823375 -812.07666016 1369.34277344 C-808.55051684 1367.06276071 -805.02531191 1364.78129794 -801.5 1362.5 C-800.0833377 1361.58332659 -798.66667103 1360.66665992 -797.25 1359.75 C-796.54875 1359.29625 -795.8475 1358.8425 -795.125 1358.375 C-771.74999998 1343.24999999 -771.74999998 1343.24999999 -769.62573242 1341.87548828 C-768.20660689 1340.957221 -766.78749886 1340.03892665 -765.3684082 1339.12060547 C-761.86450403 1336.85320799 -758.36031405 1334.58625499 -754.85546875 1332.3203125 C-747.2306175 1327.38995756 -739.61192092 1322.45029805 -732 1317.5 C-723.69998475 1312.10221018 -715.39115044 1306.71823375 -707.07666016 1301.34277344 C-703.55051684 1299.06276071 -700.02531191 1296.78129794 -696.5 1294.5 C-695.0833377 1293.58332659 -693.66667103 1292.66665992 -692.25 1291.75 C-691.54875 1291.29625 -690.8475 1290.8425 -690.125 1290.375 C-649.74999997 1264.24999998 -649.74999997 1264.24999998 -647.62573242 1262.87548828 C-646.20660689 1261.957221 -644.78749886 1261.03892665 -643.3684082 1260.12060547 C-639.86450403 1257.85320799 -636.36031405 1255.58625499 -632.85546875 1253.3203125 C-625.2306175 1248.38995756 -617.61192092 1243.45029805 -610 1238.5 C-601.69998475 1233.10221018 -593.39115044 1227.71823375 -585.07666016 1222.34277344 C-581.55051684 1220.06276071 -578.02531191 1217.78129794 -574.5 1215.5 C-573.0833377 1214.58332659 -571.66667103 1213.66665992 -570.25 1212.75 C-569.54875 1212.29625 -568.8475 1211.8425 -568.125 1211.375 C-527.75000006 1185.25000004 -527.75000006 1185.25000004 -525.62573242 1183.87548828 C-524.20660689 1182.957221 -522.78749886 1182.03892665 -521.3684082 1181.12060547 C-517.86450403 1178.85320799 -514.36031405 1176.58625499 -510.85546875 1174.3203125 C-503.23061736 1169.38995746 -495.61195364 1164.4502479 -488 1159.5 C-481.64892878 1155.37021533 -475.29628266 1151.24290376 -468.9375 1147.125 C-467.97553711 1146.50141602 -467.97553711 1146.50141602 -466.99414062 1145.86523438 C-463.24066131 1143.43605955 -459.4740148 1141.02874269 -455.69921875 1138.6328125 C-450.06201322 1135.04933715 -444.46511339 1131.40636601 -438.875 1127.75 C-429.93593711 1121.91171509 -420.98347624 1116.09494388 -412.01513672 1110.30175781 C-408.57179894 1108.07739665 -405.12948141 1105.8514593 -401.6875 1103.625 C-400.64650146 1102.95162598 -400.64650146 1102.95162598 -399.58447266 1102.26464844 C-394.05143566 1098.68392704 -388.52500291 1095.09310237 -383 1091.5 C-374.69998475 1086.10221018 -366.39115044 1080.71823375 -358.07666016 1075.34277344 C-354.55051684 1073.06276071 -351.02531191 1070.78129794 -347.5 1068.5 C-346.0833377 1067.58332659 -344.66667103 1066.66665992 -343.25 1065.75 C-342.54875 1065.29625 -341.8475 1064.8425 -341.125 1064.375 C-317.75000001 1049.25000001 -317.75000001 1049.25000001 -315.62304688 1047.8737793 C-314.21283817 1046.9612627 -312.80268153 1046.04866563 -311.39257812 1045.13598633 C-307.75253728 1042.78014583 -304.11147788 1040.42590264 -300.46875 1038.07421875 C-299.34629883 1037.34912109 -299.34629883 1037.34912109 -298.20117188 1036.609375 C-296.79135833 1035.69868799 -295.38123107 1034.78848635 -293.97070312 1033.87890625 C-292.69413661 1033.05400896 -291.42648125 1032.21508587 -290.17003822 1031.35984993 C-288 1030 -288 1030 -285.67363548 1028.98180962 C-282.8724367 1027.59705728 -281.06715418 1026.361141 -279 1024 C-277.68123074 1018.81729466 -277.9160758 1013.69188915 -278.06103516 1008.39111328 C-278.07172586 1006.78748719 -278.07828773 1005.18382905 -278.08103943 1003.58016968 C-278.09503696 1000.13198872 -278.13667325 996.68564447 -278.19945145 993.23801041 C-278.29710699 987.78283476 -278.32386253 982.32871575 -278.33944702 976.87277222 C-278.38924598 963.32240056 -278.53426114 949.77322258 -278.6942749 936.22375488 C-278.817471 925.69244122 -278.91515955 915.162159 -278.93797338 904.63009059 C-278.95259839 899.20983238 -279.01908302 893.79348124 -279.12526345 888.37427926 C-279.18023818 884.99763291 -279.18929484 881.62198208 -279.18594551 878.2449379 C-279.19369956 876.68389502 -279.2202941 875.12280974 -279.26751137 873.56246185 C-279.60902233 861.79339731 -279.60902233 861.79339731 -275.60894394 857.33495712 C-272.82216825 855.27864159 -270.06385566 853.60587386 -267 852 C-265.67882507 851.16256167 -264.36293298 850.31655151 -263.05859375 849.453125 C-261.85361238 848.71539133 -260.6465453 847.98105441 -259.4375 847.25 C-253.82136997 843.79283957 -248.2872431 840.23937848 -242.8125 836.5625 C-235.03450381 831.34261556 -227.21347148 826.19087482 -219.375 821.0625 C-218.13256404 820.24943694 -216.89013244 819.43636721 -215.64770508 818.62329102 C-213.73131896 817.36920434 -211.814912 816.1151496 -209.89842224 814.86122131 C-203.2667313 810.52162023 -196.64104826 806.17288185 -190.01583862 801.82339478 C-179.11797621 794.66896584 -168.21743275 787.51864773 -157.3125 780.375 C-156.71869537 779.98600525 -156.12489075 779.5970105 -155.51309204 779.19622803 C-150.74841547 776.07501492 -145.98352701 772.95412535 -141.21862793 769.83325195 C-137.04148454 767.09732175 -132.86442815 764.36125879 -128.6875 761.625 C-128.09393707 761.23616638 -127.50037415 760.84733276 -126.88882446 760.44671631 C-117.25597303 754.13608295 -107.6272317 747.81920253 -98 741.5 C-84.80052937 732.83602154 -71.595787 724.18012599 -58.38769531 715.52929688 C-53.4852168 712.31820698 -48.58382177 709.10546589 -43.68257141 705.89250183 C-38.85832964 702.73021078 -34.03290869 699.56972383 -29.20683289 696.41023254 C-25.73397902 694.13641577 -22.26269856 691.86022149 -18.79257202 689.58224487 C-16.11286687 687.82390448 -13.43127099 686.0684514 -10.75 684.3125 C-9.77305176 683.67022461 -8.79610352 683.02794922 -7.78955078 682.36621094 C-6.46286377 681.49851074 -6.46286377 681.49851074 -5.109375 680.61328125 C-4.33561523 680.10579346 -3.56185547 679.59830566 -2.76464844 679.07543945 C-1 678 -1 678 0 678 C0.56535778 725.54772124 1.09067809 773.09569132 1.39732361 820.64584351 C1.40415743 821.70281999 1.40415743 821.70281999 1.41112932 822.78114954 C1.50991378 838.09807894 1.6013271 853.41504406 1.68515587 868.73206244 C1.72631509 876.24439718 1.76910176 883.75672227 1.81274414 891.26904297 C1.81705919 892.0165773 1.82137424 892.76411163 1.82582005 893.53429852 C1.96624748 917.72979942 2.21396137 941.92274371 2.51780829 966.11669804 C2.82969322 990.99609314 3.03235645 1015.87407581 3.09919467 1040.75539261 C3.10870265 1044.27604307 3.11944863 1047.79668874 3.13094902 1051.31733322 C3.13428646 1052.35662057 3.13428646 1052.35662057 3.13769132 1053.41690363 C3.17657139 1064.53542123 3.32927939 1075.64954921 3.52545712 1086.76628179 C3.72061963 1097.96498003 3.79108195 1109.15945302 3.74554545 1120.36020489 C3.72447101 1126.42350311 3.75582571 1132.47402319 3.93378067 1138.53502274 C4.949582 1174.90231416 4.949582 1174.90231416 -3.23528409 1184.06056166 C-10.69297748 1191.1979365 -19.73723336 1195.86047791 -29.04797852 1200.11369109 C-34.54555168 1202.65213565 -39.42454462 1206.04193798 -44.37109375 1209.5078125 C-46.04879058 1210.61847627 -47.72942626 1211.72472712 -49.41430664 1212.82446289 C-62.46024853 1221.39602519 -75.49666643 1229.98098777 -88.4765625 1238.65234375 C-89.88069145 1239.59019714 -89.88069145 1239.59019714 -91.31318665 1240.54699707 C-95.75555537 1243.51530081 -100.19564798 1246.48693782 -104.63256836 1249.46337891 C-113.40394896 1255.33740517 -122.23928593 1261.08310516 -131.18167114 1266.69351196 C-137.87149453 1270.89746895 -144.45966056 1275.2383222 -151.0163269 1279.64630127 C-154.5275274 1282.00613945 -158.04507312 1284.35648779 -161.5625 1286.70703125 C-162.31430038 1287.20954407 -163.06610077 1287.71205688 -163.84068298 1288.22979736 C-173.34263508 1294.57410925 -182.89223042 1300.8461486 -192.4375 1307.125 C-203.80497222 1314.60265015 -215.16258229 1322.09392037 -226.4765625 1329.65234375 C-227.88069145 1330.59019714 -227.88069145 1330.59019714 -229.31318665 1331.54699707 C-233.75555537 1334.51530081 -238.19564798 1337.48693782 -242.63256836 1340.46337891 C-251.40394896 1346.33740517 -260.23928593 1352.08310516 -269.18167114 1357.69351196 C-275.87149453 1361.89746895 -282.45966056 1366.2383222 -289.0163269 1370.64630127 C-292.5275274 1373.00613945 -296.04507312 1375.35648779 -299.5625 1377.70703125 C-300.31430038 1378.20954407 -301.06610077 1378.71205688 -301.84068298 1379.22979736 C-311.34263508 1385.57410925 -320.89223042 1391.8461486 -330.4375 1398.125 C-341.80497222 1405.60265015 -353.16258229 1413.09392037 -364.4765625 1420.65234375 C-365.88069145 1421.59019714 -365.88069145 1421.59019714 -367.31318665 1422.54699707 C-371.75555537 1425.51530081 -376.19564798 1428.48693782 -380.63256836 1431.46337891 C-389.37004481 1437.31470414 -398.17114562 1443.03757367 -407.07949829 1448.62539673 C-414.23821315 1453.12498831 -421.2798119 1457.78665992 -428.29833984 1462.50106812 C-432.16211685 1465.0955688 -436.03236608 1467.68038607 -439.90234375 1470.265625 C-440.71847137 1470.81095383 -441.534599 1471.35628265 -442.37545776 1471.9181366 C-452.0569042 1478.38176464 -461.77756576 1484.785762 -471.5 1491.1875 C-472.41874908 1491.79261414 -473.33749817 1492.39772827 -474.28408813 1493.0211792 C-482.71032115 1498.57080946 -491.13857863 1504.1173618 -499.56738281 1509.66308594 C-505.08733589 1513.29508935 -510.60641325 1516.92842092 -516.125 1520.5625 C-517.02668915 1521.15613342 -517.9283783 1521.74976685 -518.85739136 1522.36138916 C-529.06941064 1529.08618509 -539.26599129 1535.83320167 -549.43359375 1542.625 C-550.3723938 1543.25196274 -551.31119385 1543.87892548 -552.27844238 1544.52488708 C-556.73335136 1547.50103714 -561.18606388 1550.48039529 -565.63525391 1553.46508789 C-574.40568905 1559.33862091 -583.24018465 1565.08366901 -592.18167114 1570.69351196 C-598.87149453 1574.89746895 -605.45966056 1579.2383222 -612.0163269 1583.64630127 C-615.5275274 1586.00613945 -619.04507312 1588.35648779 -622.5625 1590.70703125 C-623.31430038 1591.20954407 -624.06610077 1591.71205688 -624.84068298 1592.22979736 C-634.34263508 1598.57410925 -643.89223042 1604.8461486 -653.4375 1611.125 C-664.80497222 1618.60265015 -676.16258229 1626.09392037 -687.4765625 1633.65234375 C-688.88069145 1634.59019714 -688.88069145 1634.59019714 -690.31318665 1635.54699707 C-694.75555537 1638.51530081 -699.19564798 1641.48693782 -703.63256836 1644.46337891 C-712.40394896 1650.33740517 -721.23928593 1656.08310516 -730.18167114 1661.69351196 C-736.87149453 1665.89746895 -743.45966056 1670.2383222 -750.0163269 1674.64630127 C-753.5275274 1677.00613945 -757.04507312 1679.35648779 -760.5625 1681.70703125 C-761.31430038 1682.20954407 -762.06610077 1682.71205688 -762.84068298 1683.22979736 C-772.34263508 1689.57410925 -781.89223042 1695.8461486 -791.4375 1702.125 C-802.80497222 1709.60265015 -814.16258229 1717.09392037 -825.4765625 1724.65234375 C-826.88069145 1725.59019714 -826.88069145 1725.59019714 -828.31318665 1726.54699707 C-832.75555537 1729.51530081 -837.19564798 1732.48693782 -841.63256836 1735.46337891 C-850.40394896 1741.33740517 -859.23928593 1747.08310516 -868.18167114 1752.69351196 C-874.87149453 1756.89746895 -881.45966056 1761.2383222 -888.0163269 1765.64630127 C-891.5275274 1768.00613945 -895.04507312 1770.35648779 -898.5625 1772.70703125 C-899.31430038 1773.20954407 -900.06610077 1773.71205688 -900.84068298 1774.22979736 C-910.34263508 1780.57410925 -919.89223042 1786.8461486 -929.4375 1793.125 C-940.80497222 1800.60265015 -952.16258229 1808.09392037 -963.4765625 1815.65234375 C-964.88069145 1816.59019714 -964.88069145 1816.59019714 -966.31318665 1817.54699707 C-970.75555537 1820.51530081 -975.19564798 1823.48693782 -979.63256836 1826.46337891 C-988.40394896 1832.33740517 -997.23928593 1838.08310516 -1006.18167114 1843.69351196 C-1012.87149453 1847.89746895 -1019.45966056 1852.2383222 -1026.0163269 1856.64630127 C-1029.5275274 1859.00613945 -1033.04507312 1861.35648779 -1036.5625 1863.70703125 C-1037.31430038 1864.20954407 -1038.06610077 1864.71205688 -1038.84068298 1865.22979736 C-1048.34263508 1871.57410925 -1057.89223042 1877.8461486 -1067.4375 1884.125 C-1078.80497222 1891.60265015 -1090.16258229 1899.09392037 -1101.4765625 1906.65234375 C-1102.88069145 1907.59019714 -1102.88069145 1907.59019714 -1104.31318665 1908.54699707 C-1108.75555537 1911.51530081 -1113.19564798 1914.48693782 -1117.63256836 1917.46337891 C-1126.40394896 1923.33740517 -1135.23928593 1929.08310516 -1144.18167114 1934.69351196 C-1150.87149453 1938.89746895 -1157.45966056 1943.2383222 -1164.0163269 1947.64630127 C-1167.5275274 1950.00613945 -1171.04507312 1952.35648779 -1174.5625 1954.70703125 C-1175.31430038 1955.20954407 -1176.06610077 1955.71205688 -1176.84068298 1956.22979736 C-1186.34263508 1962.57410925 -1195.89223042 1968.8461486 -1205.4375 1975.125 C-1216.80497222 1982.60265015 -1228.16258229 1990.09392037 -1239.4765625 1997.65234375 C-1240.88069145 1998.59019714 -1240.88069145 1998.59019714 -1242.31318665 1999.54699707 C-1246.75555537 2002.51530081 -1251.19564798 2005.48693782 -1255.63256836 2008.46337891 C-1264.37004481 2014.31470414 -1273.17114562 2020.03757367 -1282.07949829 2025.62539673 C-1289.23821315 2030.12498831 -1296.2798119 2034.78665992 -1303.29833984 2039.50106812 C-1307.16211685 2042.0955688 -1311.03236608 2044.68038607 -1314.90234375 2047.265625 C-1315.71847137 2047.81095383 -1316.534599 2048.35628265 -1317.37545776 2048.9181366 C-1327.0569042 2055.38176464 -1336.77756576 2061.785762 -1346.5 2068.1875 C-1347.41874908 2068.79261414 -1348.33749817 2069.39772827 -1349.28408813 2070.0211792 C-1357.71032115 2075.57080946 -1366.13857863 2081.1173618 -1374.56738281 2086.66308594 C-1380.08733589 2090.29508935 -1385.60641325 2093.92842092 -1391.125 2097.5625 C-1392.02668915 2098.15613342 -1392.9283783 2098.74976685 -1393.85739136 2099.36138916 C-1404.06941064 2106.08618509 -1414.26599129 2112.83320167 -1424.43359375 2119.625 C-1425.84179382 2120.56544411 -1425.84179382 2120.56544411 -1427.27844238 2121.52488708 C-1431.73335136 2124.50103714 -1436.18606388 2127.48039529 -1440.63525391 2130.46508789 C-1449.40568905 2136.33862091 -1458.24018465 2142.08366901 -1467.18167114 2147.69351196 C-1473.87149453 2151.89746895 -1480.45966056 2156.2383222 -1487.0163269 2160.64630127 C-1490.5275274 2163.00613945 -1494.04507312 2165.35648779 -1497.5625 2167.70703125 C-1498.31430038 2168.20954407 -1499.06610077 2168.71205688 -1499.84068298 2169.22979736 C-1509.34263508 2175.57410925 -1518.89223042 2181.8461486 -1528.4375 2188.125 C-1539.80497222 2195.60265015 -1551.16258229 2203.09392037 -1562.4765625 2210.65234375 C-1563.88069145 2211.59019714 -1563.88069145 2211.59019714 -1565.31318665 2212.54699707 C-1569.75555537 2215.51530081 -1574.19564798 2218.48693782 -1578.63256836 2221.46337891 C-1587.40394896 2227.33740517 -1596.23928593 2233.08310516 -1605.18167114 2238.69351196 C-1611.87149453 2242.89746895 -1618.45966056 2247.2383222 -1625.0163269 2251.64630127 C-1628.5275274 2254.00613945 -1632.04507312 2256.35648779 -1635.5625 2258.70703125 C-1636.31430038 2259.20954407 -1637.06610077 2259.71205688 -1637.84068298 2260.22979736 C-1647.34263713 2266.57411062 -1656.89236545 2272.84594 -1666.4375 2279.125 C-1683.27219278 2290.20097039 -1700.060475 2301.34443951 -1716.80834961 2312.55126953 C-1724.71056076 2317.83618192 -1732.62552027 2323.10179705 -1740.58203125 2328.3046875 C-1741.66178474 2329.0174736 -1741.66178474 2329.0174736 -1742.76335144 2329.74465942 C-1747.76877624 2333 -1747.76877624 2333 -1750 2333 C-1750.05498098 2296.41007785 -1750.10770043 2259.82015252 -1750.15869141 2223.23022461 C-1750.16018837 2222.15624923 -1750.16018837 2222.15624923 -1750.16171558 2221.06057738 C-1750.26857152 2144.35424969 -1750.36080704 2067.64792096 -1750.4234314 1990.94154358 C-1750.4248259 1989.23801889 -1750.42622042 1987.53449421 -1750.42761494 1985.83096952 C-1750.45684072 1950.0748805 -1750.484008 1914.31879016 -1750.50879678 1878.56269779 C-1750.52125089 1860.60168439 -1750.53410063 1842.64067128 -1750.54732442 1824.67965843 C-1750.5493169 1821.97027856 -1750.55129809 1819.26089869 -1750.5532788 1816.55151881 C-1750.5838848 1774.82245074 -1750.62298449 1733.09341183 -1750.68664551 1691.36437988 C-1750.6880145 1690.46691783 -1750.68938348 1689.56945578 -1750.69079396 1688.64479791 C-1750.71291814 1674.17471372 -1750.73575405 1659.70463067 -1750.7586844 1645.23454775 C-1750.82470634 1603.56489218 -1750.88548026 1561.895259 -1750.91139793 1520.22555637 C-1750.91193328 1519.36895854 -1750.91246864 1518.5123607 -1750.91302021 1517.62980536 C-1750.92467686 1498.82705131 -1750.93362586 1480.02429699 -1750.94000983 1461.22154044 C-1750.94262611 1453.65636113 -1750.9456323 1446.09118199 -1750.94877243 1438.52600288 C-1750.9491067 1437.6980183 -1750.94944097 1436.87003371 -1750.94978537 1436.01695868 C-1750.96075623 1409.32307237 -1751.0034885 1382.62935241 -1751.06282208 1355.93553327 C-1751.12242843 1329.05375894 -1751.15100391 1302.17214615 -1751.13623988 1275.29030404 C-1751.13420898 1271.57829668 -1751.13253519 1267.86628924 -1751.13107681 1264.15428162 C-1751.13077801 1263.42660141 -1751.1304792 1262.69892121 -1751.13017134 1261.9491901 C-1751.1263599 1250.41136503 -1751.1562521 1238.87388101 -1751.20009862 1227.33614894 C-1751.24249049 1215.99987977 -1751.24860842 1204.66417489 -1751.21831814 1193.32782085 C-1751.20315016 1187.25949515 -1751.2041484 1181.19231305 -1751.24883182 1175.12410771 C-1751.28913349 1169.60932714 -1751.28386848 1164.09658828 -1751.24139976 1158.58184114 C-1751.23422497 1156.5935937 -1751.24401924 1154.6051988 -1751.27235245 1152.6171403 C-1751.47017204 1137.80393012 -1751.47017204 1137.80393012 -1747.83196728 1133.33978105 C-1745.2798576 1131.51886562 -1742.86784007 1130.24585112 -1740 1129 C-1738.65298929 1128.14759674 -1737.31848082 1127.27447894 -1736.0078125 1126.3671875 C-1734.71472902 1125.53461135 -1733.42042388 1124.70392997 -1732.125 1123.875 C-1730.64437808 1122.92211296 -1729.16391607 1121.9689774 -1727.68359375 1121.015625 C-1726.91901855 1120.52384766 -1726.15444336 1120.03207031 -1725.36669922 1119.52539062 C-1721.29923868 1116.90382126 -1717.24370891 1114.26393158 -1713.1875 1111.625 C-1711.4974002 1110.52603494 -1709.80729601 1109.42707666 -1708.1171875 1108.328125 C-1706.41144378 1107.21877238 -1704.70571465 1106.10939733 -1703 1105 C-1692.81546691 1098.37597657 -1682.62861077 1091.75574881 -1672.42626953 1085.15917969 C-1663.6072329 1079.45528423 -1654.80443013 1073.72640404 -1646 1068 C-1635.81546691 1061.37597657 -1625.62861077 1054.75574881 -1615.42626953 1048.15917969 C-1606.6072329 1042.45528423 -1597.80443013 1036.72640404 -1589 1031 C-1578.81546691 1024.37597657 -1568.62861077 1017.75574881 -1558.42626953 1011.15917969 C-1549.6072329 1005.45528423 -1540.80443013 999.72640404 -1532 994 C-1521.81546691 987.37597657 -1511.62861077 980.75574881 -1501.42626953 974.15917969 C-1492.6072329 968.45528423 -1483.80443013 962.72640404 -1475 957 C-1464.81546691 950.37597657 -1454.62861077 943.75574881 -1444.42626953 937.15917969 C-1435.6072329 931.45528423 -1426.80443013 925.72640404 -1418 920 C-1407.81546691 913.37597657 -1397.62861077 906.75574881 -1387.42626953 900.15917969 C-1382.00854796 896.65515552 -1376.59691789 893.14182782 -1371.1875 889.625 C-1370.34727295 889.07884033 -1369.5070459 888.53268066 -1368.64135742 887.9699707 C-1364.48067762 885.26495245 -1360.32125817 882.5580262 -1356.1640625 879.84765625 C-1346.86725628 873.79027635 -1337.54092101 867.78214437 -1328.1875 861.8125 C-1320.82825417 857.11428389 -1313.4984573 852.3833481 -1306.25219727 847.51269531 C-1299.60598603 843.04872403 -1292.87349783 838.71935389 -1286.14404297 834.38232422 C-1282.65613964 832.1335758 -1279.17172109 829.87944803 -1275.6875 827.625 C-1274.99197021 827.17503662 -1274.29644043 826.72507324 -1273.57983398 826.26147461 C-1264.71081333 820.52162637 -1255.85598284 814.75993394 -1247 809 C-1236.81546691 802.37597657 -1226.62861077 795.75574881 -1216.42626953 789.15917969 C-1207.6072329 783.45528423 -1198.80443013 777.72640404 -1190 772 C-1179.81546691 765.37597657 -1169.62861077 758.75574881 -1159.42626953 752.15917969 C-1151.4580522 747.00556932 -1143.50346199 741.83101805 -1135.54833984 736.65722656 C-1130.53528811 733.39715805 -1125.52121244 730.13866462 -1120.50732422 726.87988281 C-1116.30271689 724.14701145 -1112.09836681 721.41374592 -1107.89453125 718.6796875 C-1099.41141363 713.16305886 -1090.92385458 707.65349769 -1082.42626953 702.15917969 C-1073.6072329 696.45528423 -1064.80443013 690.72640404 -1056 685 C-1045.81546691 678.37597657 -1035.62861077 671.75574881 -1025.42626953 665.15917969 C-1016.6072329 659.45528423 -1007.80443013 653.72640404 -999 648 C-988.81546691 641.37597657 -978.62861077 634.75574881 -968.42626953 628.15917969 C-959.6072329 622.45528423 -950.80443013 616.72640404 -942 611 C-931.81546691 604.37597657 -921.62861077 597.75574881 -911.42626953 591.15917969 C-902.6072329 585.45528423 -893.80443013 579.72640404 -885 574 C-874.81546691 567.37597657 -864.62861077 560.75574881 -854.42626953 554.15917969 C-845.6072329 548.45528423 -836.80443013 542.72640404 -828 537 C-817.81546691 530.37597657 -807.62861077 523.75574881 -797.42626953 517.15917969 C-788.6072329 511.45528423 -779.80443013 505.72640404 -771 500 C-760.81546691 493.37597657 -750.62861077 486.75574881 -740.42626953 480.15917969 C-731.6072329 474.45528423 -722.80443013 468.72640404 -714 463 C-703.81546691 456.37597657 -693.62861077 449.75574881 -683.42626953 443.15917969 C-674.6072329 437.45528423 -665.80443013 431.72640404 -657 426 C-646.81546691 419.37597657 -636.62861077 412.75574881 -626.42626953 406.15917969 C-617.6072329 400.45528423 -608.80443013 394.72640404 -600 389 C-589.81546691 382.37597657 -579.62861077 375.75574881 -569.42626953 369.15917969 C-560.6072329 363.45528423 -551.80443013 357.72640404 -543 352 C-532.81546691 345.37597657 -522.62861077 338.75574881 -512.42626953 332.15917969 C-503.6072329 326.45528423 -494.80443013 320.72640404 -486 315 C-475.81546691 308.37597657 -465.62861077 301.75574881 -455.42626953 295.15917969 C-447.4580522 290.00556932 -439.50346199 284.83101805 -431.54833984 279.65722656 C-426.53528811 276.39715805 -421.52121244 273.13866462 -416.50732422 269.87988281 C-412.30271689 267.14701145 -408.09836681 264.41374592 -403.89453125 261.6796875 C-395.41141363 256.16305886 -386.92385458 250.65349769 -378.42626953 245.15917969 C-369.6072329 239.45528423 -360.80443013 233.72640404 -352 228 C-341.81546691 221.37597657 -331.62861077 214.75574881 -321.42626953 208.15917969 C-312.6072329 202.45528423 -303.80443013 196.72640404 -295 191 C-284.81546691 184.37597657 -274.62861077 177.75574881 -264.42626953 171.15917969 C-255.6072329 165.45528423 -246.80443013 159.72640404 -238 154 C-227.81546691 147.37597657 -217.62861077 140.75574881 -207.42626953 134.15917969 C-198.6072329 128.45528423 -189.80443013 122.72640404 -181 117 C-170.81546691 110.37597657 -160.62861077 103.75574881 -150.42626953 97.15917969 C-141.6072329 91.45528423 -132.80443013 85.72640404 -124 80 C-113.81546691 73.37597657 -103.62861077 66.75574881 -93.42626953 60.15917969 C-84.6072329 54.45528423 -75.80443013 48.72640404 -67 43 C-57.5055193 36.82478686 -48.01102714 30.64970928 -38.5 24.5 C-32.16280712 20.40177247 -25.8294604 16.29766109 -19.5 12.1875 C-18.68724609 11.66027344 -17.87449219 11.13304687 -17.03710938 10.58984375 C-12.23670733 7.47096071 -7.46869969 4.31057242 -2.73242188 1.0949707 C-1 0 -1 0 0 0 Z " fill="#00C8FE" transform="translate(3790,1683)"/>
<path d="M0 0 C2.19826481 1.25114424 4.39592389 2.50333306 6.59326172 3.75610352 C7.20646774 4.10496864 7.81967377 4.45383377 8.45146179 4.81327057 C14.74768122 8.40501001 20.93928489 12.15858877 27.125 15.9375 C28.33125388 16.67232655 29.5376373 17.40694051 30.74414062 18.14135742 C33.24302965 19.66272827 35.74137124 21.18499165 38.23925781 22.70800781 C44.32211298 26.41618188 50.41087736 30.11462983 56.5 33.8125 C57.0891217 34.17036591 57.67824341 34.52823181 58.28521729 34.89694214 C65.51089683 39.28572885 72.74602958 43.65810903 80 48 C91.48986886 54.87730374 102.9286366 61.83867845 114.37109375 68.79443359 C119.66545717 72.01259345 124.96181075 75.22747493 130.25805664 78.4425354 C133.17212325 80.21154945 136.08605463 81.98078624 139 83.75 C140.16666602 84.4583344 141.33333269 85.16666773 142.5 85.875 C172.83333333 104.29166667 203.16666667 122.70833333 233.5 141.125 C234.07745972 141.47559982 234.65491943 141.82619965 235.24987793 142.18742371 C236.41695408 142.89600711 237.58402764 143.60459475 238.75109863 144.31318665 C241.66147916 146.08022876 244.57190397 147.84719784 247.48242188 149.61401367 C252.80749795 152.84667585 258.13219733 156.07995207 263.45532227 159.31582642 C279.70522805 169.19503412 279.70522805 169.19503412 296 179 C307.48986886 185.87730374 318.9286366 192.83867845 330.37109375 199.79443359 C335.66545717 203.01259345 340.96181075 206.22747493 346.25805664 209.4425354 C349.17212325 211.21154945 352.08605463 212.98078624 355 214.75 C356.16666602 215.4583344 357.33333269 216.16666773 358.5 216.875 C398.16666667 240.95833333 437.83333333 265.04166667 477.5 289.125 C478.07745972 289.47559982 478.65491943 289.82619965 479.24987793 290.18742371 C480.41695408 290.89600711 481.58402764 291.60459475 482.75109863 292.31318665 C485.66147916 294.08022876 488.57190397 295.84719784 491.48242188 297.61401367 C496.80749795 300.84667585 502.13219733 304.07995207 507.45532227 307.31582642 C523.70522805 317.19503412 523.70522805 317.19503412 540 327 C551.48986886 333.87730374 562.9286366 340.83867845 574.37109375 347.79443359 C579.66545717 351.01259345 584.96181075 354.22747493 590.25805664 357.4425354 C593.17212325 359.21154945 596.08605463 360.98078624 599 362.75 C600.16666602 363.4583344 601.33333269 364.16666773 602.5 364.875 C648 392.5 648 392.5 693.5 420.125 C694.36618958 420.65089973 694.36618958 420.65089973 695.24987793 421.18742371 C696.41695408 421.89600711 697.58402764 422.60459475 698.75109863 423.31318665 C701.66147916 425.08022876 704.57190397 426.84719784 707.48242188 428.61401367 C712.80749795 431.84667585 718.13219733 435.07995207 723.45532227 438.31582642 C739.70522805 448.19503412 739.70522805 448.19503412 756 458 C767.48986886 464.87730374 778.9286366 471.83867845 790.37109375 478.79443359 C795.66545717 482.01259345 800.96181075 485.22747493 806.25805664 488.4425354 C809.17212325 490.21154945 812.08605463 491.98078624 815 493.75 C816.16666602 494.4583344 817.33333269 495.16666773 818.5 495.875 C878 532 878 532 937.5 568.125 C938.07745972 568.47559982 938.65491943 568.82619965 939.24987793 569.18742371 C940.41695408 569.89600711 941.58402764 570.60459475 942.75109863 571.31318665 C945.66147916 573.08022876 948.57190397 574.84719784 951.48242188 576.61401367 C956.80749795 579.84667585 962.13219733 583.07995207 967.45532227 586.31582642 C983.70522805 596.19503412 983.70522805 596.19503412 1000 606 C1011.48986886 612.87730374 1022.9286366 619.83867845 1034.37109375 626.79443359 C1039.66545717 630.01259345 1044.96181075 633.22747493 1050.25805664 636.4425354 C1053.17212325 638.21154945 1056.08605463 639.98078624 1059 641.75 C1060.16666602 642.4583344 1061.33333269 643.16666773 1062.5 643.875 C1108 671.5 1108 671.5 1153.5 699.125 C1154.07745972 699.47559982 1154.65491943 699.82619965 1155.24987793 700.18742371 C1156.41695408 700.89600711 1157.58402764 701.60459475 1158.75109863 702.31318665 C1161.66147916 704.08022876 1164.57190397 705.84719784 1167.48242188 707.61401367 C1172.80749795 710.84667585 1178.13219733 714.07995207 1183.45532227 717.31582642 C1199.70522805 727.19503412 1199.70522805 727.19503412 1216 737 C1227.48986886 743.87730374 1238.9286366 750.83867845 1250.37109375 757.79443359 C1255.66545717 761.01259345 1260.96181075 764.22747493 1266.25805664 767.4425354 C1269.17212325 769.21154945 1272.08605463 770.98078624 1275 772.75 C1276.16666602 773.4583344 1277.33333269 774.16666773 1278.5 774.875 C1318.16666667 798.95833333 1357.83333333 823.04166667 1397.5 847.125 C1398.07745972 847.47559982 1398.65491943 847.82619965 1399.24987793 848.18742371 C1400.41695408 848.89600711 1401.58402764 849.60459475 1402.75109863 850.31318665 C1405.66147916 852.08022876 1408.57190397 853.84719784 1411.48242188 855.61401367 C1416.80749795 858.84667585 1422.13219733 862.07995207 1427.45532227 865.31582642 C1443.70522805 875.19503412 1443.70522805 875.19503412 1460 885 C1471.48986886 891.87730374 1482.9286366 898.83867845 1494.37109375 905.79443359 C1499.66545717 909.01259345 1504.96181075 912.22747493 1510.25805664 915.4425354 C1513.17212325 917.21154945 1516.08605463 918.98078624 1519 920.75 C1520.16666602 921.4583344 1521.33333269 922.16666773 1522.5 922.875 C1568 950.5 1568 950.5 1613.5 978.125 C1614.07745972 978.47559982 1614.65491943 978.82619965 1615.24987793 979.18742371 C1616.41695408 979.89600711 1617.58402764 980.60459475 1618.75109863 981.31318665 C1621.66147916 983.08022876 1624.57190397 984.84719784 1627.48242188 986.61401367 C1632.80749795 989.84667585 1638.13219733 993.07995207 1643.45532227 996.31582642 C1659.70531907 1006.19488285 1659.70531907 1006.19488285 1676 1016 C1683.70846983 1020.61661105 1691.4049724 1025.25281781 1699.09082031 1029.90698242 C1700.35273867 1030.67074963 1701.61510107 1031.43378371 1702.87792969 1032.19604492 C1704.6490385 1033.26536248 1706.41846297 1034.33741563 1708.1875 1035.41015625 C1709.72470703 1036.34033569 1709.72470703 1036.34033569 1711.29296875 1037.28930664 C1713.62615979 1038.76375376 1715.82457565 1040.30450593 1718 1042 C1716.8349034 1045.49528981 1716.11665622 1045.8666293 1713.1171875 1047.81225586 C1711.8782373 1048.62472023 1711.8782373 1048.62472023 1710.61425781 1049.45359802 C1709.71030273 1050.03480911 1708.80634766 1050.6160202 1707.875 1051.21484375 C1706.94010742 1051.82582413 1706.00521484 1052.4368045 1705.04199219 1053.06629944 C1702.03296497 1055.03112063 1699.01694539 1056.98486323 1696 1058.9375 C1692.08047189 1061.48390607 1688.16413045 1064.03514923 1684.25 1066.58984375 C1683.28027252 1067.22221954 1682.31054504 1067.85459534 1681.31143188 1068.50613403 C1674.91861149 1072.6929398 1668.65120482 1077.02141479 1662.43710327 1081.46757507 C1653.02086938 1088.17253367 1643.29955238 1094.42690165 1633.625 1100.75 C1619.887283 1109.59546152 1619.887283 1109.59546152 1606.5234375 1118.984375 C1596.70577917 1126.28573456 1586.26024503 1132.75236684 1576.02441406 1139.44580078 C1562.25611593 1148.42115818 1562.25611593 1148.42115818 1548.86083984 1157.93701172 C1541.67129892 1163.12148183 1534.20150214 1167.91890059 1526.8125 1172.8125 C1515.3346849 1180.41534481 1503.88496642 1188.04771925 1492.55859375 1195.875 C1489.83303577 1197.74951748 1487.1067873 1199.62302727 1484.38046265 1201.49642944 C1482.6330442 1202.70284657 1480.88984798 1203.91540331 1479.15103149 1205.13418579 C1476.7307304 1206.83013316 1474.29690957 1208.50473926 1471.859375 1210.17578125 C1471.1486937 1210.68266479 1470.43801239 1211.18954834 1469.70579529 1211.71179199 C1466.51793504 1213.87077326 1464.77875055 1215.00042356 1460.85791016 1214.99829102 C1457.74720947 1213.91169823 1455.2097664 1212.59833713 1452.4140625 1210.8515625 C1451.33471436 1210.18552002 1450.25536621 1209.51947754 1449.14331055 1208.83325195 C1448.57172211 1208.47445953 1448.00013367 1208.11566711 1447.41122437 1207.7460022 C1444.95204552 1206.20266591 1442.4798038 1204.68084908 1440.00791931 1203.15797424 C1438.69631897 1202.34992182 1437.38534515 1201.54085166 1436.07496643 1200.7308197 C1429.34261455 1196.57523568 1422.54000401 1192.54132189 1415.72808838 1188.51794434 C1403.06764198 1181.03899191 1390.47189526 1173.46143081 1377.92724609 1165.78955078 C1372.4763839 1162.4572055 1367.0212031 1159.13198162 1361.5625 1155.8125 C1360.98222046 1155.459599 1360.40194092 1155.106698 1359.80407715 1154.74310303 C1349.56576002 1148.52095451 1339.27139138 1142.39591975 1328.9614563 1136.29336548 C1318.46011058 1130.07617746 1308.01291521 1123.77620459 1297.59350586 1117.42285156 C1288.62503614 1111.96058422 1279.60063956 1106.59602664 1270.5625 1101.25 C1261.00087977 1095.59402041 1251.49290172 1089.87214615 1242.07275391 1083.98242188 C1233.5805774 1078.69487149 1224.96867189 1073.61316439 1216.35888672 1068.52050781 C1206.29583461 1062.56718447 1196.27708293 1056.54808578 1186.29495239 1050.46011353 C1176.8650743 1044.71155002 1167.38097737 1039.05919295 1157.875 1033.4375 C1147.13433261 1027.08516243 1136.47050776 1020.62808767 1125.86230469 1014.05615234 C1116.66532192 1008.37400297 1107.37823573 1002.85195521 1098.07324219 997.34912109 C1088.67839875 991.79233304 1079.31895832 986.18310843 1070 980.5 C1060.0419494 974.428083 1050.03674218 968.44090331 1040 962.5 C1029.88424234 956.51098893 1019.7935915 950.48434996 1009.75 944.375 C1009.1782605 944.02725525 1008.606521 943.6795105 1008.01745605 943.32122803 C1003.44038652 940.5364429 998.86588018 937.74745795 994.29150391 934.95825195 C990.27888859 932.51182882 986.26521976 930.06714645 982.25 927.625 C981.67858276 927.27741638 981.10716553 926.92983276 980.51843262 926.57171631 C970.37519055 920.40591592 960.17489347 914.33884619 949.96008301 908.2925415 C939.45919392 902.07563009 929.01245943 895.77592667 918.59350586 889.42285156 C909.62503614 883.96058422 900.60063956 878.59602664 891.5625 873.25 C882.00087977 867.59402041 872.49290172 861.87214615 863.07275391 855.98242188 C854.5805774 850.69487149 845.96867189 845.61316439 837.35888672 840.52050781 C827.86898651 834.90626237 818.41411531 829.24039653 809 823.5 C798.93772087 817.36564149 788.82833196 811.31608095 778.6875 805.3125 C766.71473285 798.2229231 754.79787463 791.04922275 742.92724609 783.78955078 C737.4763839 780.4572055 732.0212031 777.13198162 726.5625 773.8125 C725.98222046 773.459599 725.40194092 773.106698 724.80407715 772.74310303 C714.56576002 766.52095451 704.27139138 760.39591975 693.9614563 754.29336548 C683.46011058 748.07617746 673.01291521 741.77620459 662.59350586 735.42285156 C653.62503614 729.96058422 644.60063956 724.59602664 635.5625 719.25 C626.00087977 713.59402041 616.49290172 707.87214615 607.07275391 701.98242188 C598.5805774 696.69487149 589.96867189 691.61316439 581.35888672 686.52050781 C571.86898651 680.90626237 562.41411531 675.24039653 553 669.5 C542.93772087 663.36564149 532.82833196 657.31608095 522.6875 651.3125 C510.71473285 644.2229231 498.79787463 637.04922275 486.92724609 629.78955078 C481.4763839 626.4572055 476.0212031 623.13198162 470.5625 619.8125 C469.98222046 619.459599 469.40194092 619.106698 468.80407715 618.74310303 C458.56576002 612.52095451 448.27139138 606.39591975 437.9614563 600.29336548 C427.46011058 594.07617746 417.01291521 587.77620459 406.59350586 581.42285156 C397.62503614 575.96058422 388.60063956 570.59602664 379.5625 565.25 C370.00087977 559.59402041 360.49290172 553.87214615 351.07275391 547.98242188 C342.58952166 542.70044053 333.98685079 537.62382198 325.38607788 532.53662109 C312.07131017 524.65978256 298.83565445 516.65806059 285.63012695 508.59960938 C283.09266882 507.05635998 280.54730841 505.52691724 278 504 C277.55509109 557.99716986 277.24213767 611.9937236 277.10554903 665.99260187 C277.08930212 672.37104719 277.07196546 678.74948911 277.05395508 685.12792969 C277.05038793 686.39773461 277.04682079 687.66753954 277.04314554 688.9758234 C276.98282724 709.52286614 276.83428145 730.06836833 276.65298551 750.61465907 C276.46885477 771.70539631 276.37986993 792.79499657 276.37875468 813.88654518 C276.37508117 826.89699198 276.2976756 839.90267253 276.12518377 852.91199434 C276.01393085 861.83951254 275.9953104 870.76426982 276.04863536 879.69230902 C276.07668246 884.84170281 276.06476431 889.98258281 275.94248772 895.1307869 C274.67029521 915.13044148 274.67029521 915.13044148 281.43445134 933.17124939 C286.98816807 938.54359844 293.83352955 941.7558347 300.90654004 944.65496063 C305.56826234 946.68188197 309.66621344 949.42678932 313.875 952.25 C315.40473276 953.2206036 316.93693724 954.18733356 318.47265625 955.1484375 C330.93453743 962.9972977 343.37925142 970.87236965 355.80126953 978.78417969 C364.0787882 984.05446637 372.37340293 989.29733903 380.67333984 994.53222656 C385.41101032 997.52098573 390.14644325 1000.51328922 394.88232422 1003.50488281 C398.80235106 1005.98094327 402.72285919 1008.4562335 406.64453125 1010.9296875 C417.03906141 1017.48725938 427.41511844 1024.07340966 437.78125 1030.67578125 C438.63887939 1031.22194092 439.49650879 1031.76810059 440.38012695 1032.33081055 C442.15517704 1033.46174126 443.92973922 1034.59343806 445.70385742 1035.72583008 C452.21535355 1039.87824793 458.75752263 1043.97915203 465.3125 1048.0625 C476.00352569 1054.73379971 486.64664094 1061.47743404 497.26904297 1068.25732422 C501.9064222 1071.21652438 506.54676488 1074.17106627 511.1875 1077.125 C512.10072021 1077.70628662 513.01394043 1078.28757324 513.95483398 1078.88647461 C522.18231526 1084.12080805 530.4254336 1089.33015551 538.67333984 1094.53222656 C543.41101032 1097.52098573 548.14644325 1100.51328922 552.88232422 1103.50488281 C556.80235106 1105.98094327 560.72285919 1108.4562335 564.64453125 1110.9296875 C574.04397818 1116.85953993 583.4274846 1122.813845 592.80126953 1128.78417969 C601.8522928 1134.54695587 610.92418577 1140.27637549 620 1146 C630.94870594 1152.90475588 641.88356411 1159.83049386 652.80126953 1166.78417969 C661.0787882 1172.05446637 669.37340293 1177.29733903 677.67333984 1182.53222656 C682.41101032 1185.52098573 687.14644325 1188.51328922 691.88232422 1191.50488281 C695.80235106 1193.98094327 699.72285919 1196.4562335 703.64453125 1198.9296875 C713.04397818 1204.85953993 722.4274846 1210.813845 731.80126953 1216.78417969 C740.0787882 1222.05446637 748.37340293 1227.29733903 756.67333984 1232.53222656 C761.41101032 1235.52098573 766.14644325 1238.51328922 770.88232422 1241.50488281 C774.80235106 1243.98094327 778.72285919 1246.4562335 782.64453125 1248.9296875 C792.04397818 1254.85953993 801.4274846 1260.813845 810.80126953 1266.78417969 C819.8522928 1272.54695587 828.92418577 1278.27637549 838 1284 C848.94870594 1290.90475588 859.88356411 1297.83049386 870.80126953 1304.78417969 C879.0787882 1310.05446637 887.37340293 1315.29733903 895.67333984 1320.53222656 C900.41101032 1323.52098573 905.14644325 1326.51328922 909.88232422 1329.50488281 C913.80235106 1331.98094327 917.72285919 1334.4562335 921.64453125 1336.9296875 C931.04397818 1342.85953993 940.4274846 1348.813845 949.80126953 1354.78417969 C958.0787882 1360.05446637 966.37340293 1365.29733903 974.67333984 1370.53222656 C979.41101032 1373.52098573 984.14644325 1376.51328922 988.88232422 1379.50488281 C992.80235106 1381.98094327 996.72285919 1384.4562335 1000.64453125 1386.9296875 C1010.04397818 1392.85953993 1019.4274846 1398.813845 1028.80126953 1404.78417969 C1038.66407951 1411.06381954 1048.55122842 1417.30468277 1058.44238281 1423.53955078 C1059.25803711 1424.05372559 1060.07369141 1424.56790039 1060.9140625 1425.09765625 C1061.72681641 1425.60989746 1062.53957031 1426.12213867 1063.37695312 1426.64990234 C1065.75637331 1428.15206637 1068.13211336 1429.65992929 1070.5078125 1431.16796875 C1073.42186119 1433.01478627 1076.35270915 1434.82777749 1079.3046875 1436.61328125 C1079.96364014 1437.01844971 1080.62259277 1437.42361816 1081.30151367 1437.84106445 C1083.06389671 1438.92404598 1084.83439795 1439.99378528 1086.60546875 1441.0625 C1087.39566406 1441.701875 1088.18585938 1442.34125 1089 1443 C1089 1447 1089 1447 1087.61894226 1448.38682556 C1086.64100456 1449.01506981 1086.64100456 1449.01506981 1085.64331055 1449.65600586 C1084.89946609 1450.14386566 1084.15562164 1450.63172546 1083.38923645 1451.1343689 C1082.56340561 1451.6559256 1081.73757477 1452.1774823 1080.88671875 1452.71484375 C1080.0275737 1453.27362213 1079.16842865 1453.83240051 1078.2832489 1454.40811157 C1076.41180642 1455.62327443 1074.53624591 1456.83211272 1072.65716553 1458.03543091 C1068.62417732 1460.61855758 1064.61116153 1463.23196202 1060.5970459 1465.84428406 C1058.50857012 1467.20327559 1056.41911767 1468.56076725 1054.32873535 1469.91682434 C1043.92498638 1476.67279728 1033.6428576 1483.60245155 1023.375 1490.5625 C1019.80034316 1492.98174763 1016.22462861 1495.3994273 1012.6484375 1497.81640625 C1011.76672379 1498.41241135 1010.88501007 1499.00841644 1009.97657776 1499.6224823 C999.47881565 1506.71228989 988.92987474 1513.725067 978.38269043 1520.74102783 C965.99209598 1528.9849588 953.63922333 1537.28241781 941.31173706 1545.62039185 C924.12036695 1557.24734979 906.85877804 1568.76012919 889.49414062 1580.12695312 C879.96845579 1586.36841648 870.50178068 1592.68232111 861.10546875 1599.1171875 C858.21157091 1601.08789914 855.31665067 1603.05709957 852.42141724 1605.02584839 C850.57013637 1606.29139775 848.72390221 1607.56436416 846.88302612 1608.84500122 C844.34294747 1610.61171984 841.78707107 1612.35292379 839.2265625 1614.08984375 C838.47863937 1614.62048431 837.73071625 1615.15112488 836.96012878 1615.69784546 C831.8120677 1619.14104239 831.8120677 1619.14104239 827.67700195 1618.42285156 C824.49747105 1616.73290117 821.51101813 1614.87032423 818.5625 1612.8125 C817.23530953 1611.90748218 815.90711667 1611.00393324 814.578125 1610.1015625 C813.85173828 1609.60688477 813.12535156 1609.11220703 812.37695312 1608.60253906 C807.89040994 1605.57771681 803.3484971 1602.6374076 798.8125 1599.6875 C797.33668457 1598.72638306 797.33668457 1598.72638306 795.83105469 1597.74584961 C792.88800132 1595.8295938 789.9441376 1593.91458948 787 1592 C786.12085937 1591.42813965 785.24171875 1590.8562793 784.3359375 1590.26708984 C779.37553471 1587.04074224 774.41389976 1583.81629507 769.45166016 1580.59277344 C764.46468739 1577.35287996 759.47878888 1574.11133345 754.49267578 1570.87011719 C750.36394798 1568.18632337 746.23498706 1565.50288985 742.10546875 1562.8203125 C732.25493524 1556.42060283 722.41190209 1550.0095173 712.57373047 1543.59082031 C703.8727707 1537.91494637 695.16343377 1532.25203073 686.45166016 1526.59277344 C681.46468739 1523.35287996 676.47878888 1520.11133345 671.49267578 1516.87011719 C667.36394798 1514.18632337 663.23498706 1511.50288985 659.10546875 1508.8203125 C649.25493524 1502.42060283 639.41190209 1496.0095173 629.57373047 1489.59082031 C620.8727707 1483.91494637 612.16343377 1478.25203073 603.45166016 1472.59277344 C598.46468739 1469.35287996 593.47878888 1466.11133345 588.49267578 1462.87011719 C584.36394798 1460.18632337 580.23498706 1457.50288985 576.10546875 1454.8203125 C566.25493524 1448.42060283 556.41190209 1442.0095173 546.57373047 1435.59082031 C537.8727707 1429.91494637 529.16343377 1424.25203073 520.45166016 1418.59277344 C515.46468739 1415.35287996 510.47878888 1412.11133345 505.49267578 1408.87011719 C501.36394798 1406.18632337 497.23498706 1403.50288985 493.10546875 1400.8203125 C483.25493524 1394.42060283 473.41190209 1388.0095173 463.57373047 1381.59082031 C454.8727707 1375.91494637 446.16343377 1370.25203073 437.45166016 1364.59277344 C432.46468739 1361.35287996 427.47878888 1358.11133345 422.49267578 1354.87011719 C418.36394798 1352.18632337 414.23498706 1349.50288985 410.10546875 1346.8203125 C400.25493524 1340.42060283 390.41190209 1334.0095173 380.57373047 1327.59082031 C371.8727707 1321.91494637 363.16343377 1316.25203073 354.45166016 1310.59277344 C349.46468739 1307.35287996 344.47878888 1304.11133345 339.49267578 1300.87011719 C335.36394798 1298.18632337 331.23498706 1295.50288985 327.10546875 1292.8203125 C317.25493524 1286.42060283 307.41190209 1280.0095173 297.57373047 1273.59082031 C288.8727707 1267.91494637 280.16343377 1262.25203073 271.45166016 1256.59277344 C266.46468739 1253.35287996 261.47878888 1250.11133345 256.49267578 1246.87011719 C252.36394798 1244.18632337 248.23498706 1241.50288985 244.10546875 1238.8203125 C234.25493524 1232.42060283 224.41190209 1226.0095173 214.57373047 1219.59082031 C205.8727707 1213.91494637 197.16343377 1208.25203073 188.45166016 1202.59277344 C183.46468739 1199.35287996 178.47878888 1196.11133345 173.49267578 1192.87011719 C169.36394798 1190.18632337 165.23498706 1187.50288985 161.10546875 1184.8203125 C151.25493524 1178.42060283 141.41190209 1172.0095173 131.57373047 1165.59082031 C122.8727707 1159.91494637 114.16343377 1154.25203073 105.45166016 1148.59277344 C100.46468739 1145.35287996 95.47878888 1142.11133345 90.49267578 1138.87011719 C86.36394798 1136.18632337 82.23498706 1133.50288985 78.10546875 1130.8203125 C68.25493524 1124.42060283 58.41190209 1118.0095173 48.57373047 1111.59082031 C42.32342721 1107.51357661 36.06997274 1103.44123174 29.8125 1099.375 C29.13587741 1098.90570505 28.45925482 1098.43641011 27.76212852 1097.9528941 C23.52832888 1095.07758375 19.5904865 1092.72982383 14.751302 1091.03009206 C8.55439759 1088.55925513 3.71244069 1085.67524729 0 1080 C-3.74100924 1067.45830321 -2.65777012 1053.62074398 -2.44532386 1040.67619578 C-2.37646057 1035.12982194 -2.42408729 1029.58423776 -2.45687366 1024.03770238 C-2.49831029 1014.3191843 -2.46554964 1004.60311689 -2.3841095 994.88488388 C-2.26335329 980.4349072 -2.25736409 965.98608918 -2.27494927 951.53577179 C-2.30307664 927.22802983 -2.23456347 902.92133362 -2.11460114 878.61391258 C-1.99610443 854.54589853 -1.91909018 830.47833233 -1.89754486 806.41002846 C-1.89685662 805.66224437 -1.89616839 804.91446028 -1.89545929 804.14401607 C-1.8891952 797.31404233 -1.8834414 790.48406823 -1.8782998 783.65409355 C-1.86551277 766.67643087 -1.84632688 749.69877864 -1.82279587 732.72112751 C-1.82172952 731.94804935 -1.82066317 731.17497119 -1.81956451 730.37846642 C-1.76714876 692.78331097 -1.64100376 655.18845109 -1.50878906 617.59350586 C-1.46295537 604.54913557 -1.41744788 591.50476427 -1.37329102 578.46038818 C-1.37055203 577.65136189 -1.36781305 576.8423356 -1.36499107 576.00879336 C-1.2380817 538.39088168 -1.16358877 500.77291923 -1.10259511 463.15484962 C-1.09863384 460.71230429 -1.09464999 458.26975901 -1.09066153 455.82721373 C-1.06426563 439.64017811 -1.03877269 423.45314115 -1.01388434 407.26610314 C-0.96435583 375.05861463 -0.90952224 342.8511358 -0.8510434 310.64366231 C-0.8482586 309.10989932 -0.84547751 307.57613633 -0.84270014 306.04237334 C-0.69703536 225.6208302 -0.46454704 145.19958097 0 0 Z " fill="#00C8FE" transform="translate(2050,379)"/>
<path d="M0 0 C1.50033172 0.29563016 3.00327345 0.57814943 4.5078125 0.8515625 C10.18280665 1.96880116 15.62370478 3.60481902 21.125 5.375 C22.06214844 5.66632813 22.99929688 5.95765625 23.96484375 6.2578125 C28.93470679 7.84260799 33.56488152 9.62528016 38.17797852 12.0612793 C39.85157201 12.92352866 41.59101254 13.65468394 43.33203125 14.37109375 C57.0495635 20.14464893 70.08948932 28.96019783 81 39 C82.41429939 40.23188975 83.83076352 41.46130143 85.25 42.6875 C86.18392578 43.51507812 86.18392578 43.51507812 87.13671875 44.359375 C88.41865464 45.48812358 89.71381133 46.60197629 91.01953125 47.703125 C98.55987606 54.10448847 104.62496408 61.60730959 110.625 69.4375 C111.1715625 70.13681641 111.718125 70.83613281 112.28125 71.55664062 C122 84.21659128 122 84.21659128 122 89 C122.66 89 123.32 89 124 89 C124.27263672 89.81404297 124.27263672 89.81404297 124.55078125 90.64453125 C124.80214844 91.35996094 125.05351563 92.07539063 125.3125 92.8125 C125.55613281 93.52019531 125.79976562 94.22789062 126.05078125 94.95703125 C126.87999844 97.04763406 126.87999844 97.04763406 128.46484375 98.46484375 C139.53937091 109.53937091 142.7162232 136.03397329 145 151 C145.19207031 152.25296875 145.38414062 153.5059375 145.58203125 154.796875 C145.92203616 157.03748288 146.25293359 159.2795129 146.5703125 161.5234375 C146.87635859 163.99249254 146.87635859 163.99249254 148 166 C148.27907255 171.0135807 148.24465311 176.04169663 148.25 181.0625 C148.25133942 181.79307617 148.25267883 182.52365234 148.25405884 183.27636719 C148.2496962 194.19921113 147.45514628 204.33438778 145 215 C144.68746648 216.9616884 144.37504254 218.92340751 144.07128906 220.88647461 C142.91574342 228.03838893 140.92199803 234.64526462 138.4375 241.4375 C137.97972168 242.69119385 137.97972168 242.69119385 137.51269531 243.97021484 C135.26390871 249.86804565 135.26390871 249.86804565 133 251 C131.96983675 253.36904246 131.96983675 253.36904246 131.0625 256.1875 C129.62532199 260.32140528 128.07887067 264.15408927 126 268 C125.34 268 124.68 268 124 268 C123.77183594 268.82371094 123.54367187 269.64742187 123.30859375 270.49609375 C121.71861341 274.75344409 119.54654115 278.27522855 117.0625 282.0625 C116.57015869 282.81345947 116.07781738 283.56441895 115.57055664 284.33813477 C99.9141895 307.79647922 78.32608497 328.35507346 53 341 C52.34 341 51.68 341 51 341 C51 341.66 51 342.32 51 343 C42.56462676 347.37389724 33.81524264 350.71057245 24.9375 354.0625 C24.28910156 354.30790527 23.64070313 354.55331055 22.97265625 354.80615234 C20.9863206 355.55052964 18.9944947 356.27778548 17 357 C16.29190186 357.26272705 15.58380371 357.5254541 14.85424805 357.79614258 C9.26573101 359.78304802 3.81115087 360.81515348 -2.0625 361.5625 C-2.98224609 361.68471924 -3.90199219 361.80693848 -4.84960938 361.93286133 C-6.70544337 362.1783821 -8.56172368 362.42055543 -10.41845703 362.65917969 C-12.67860655 362.95756901 -14.93053553 363.28567954 -17.18359375 363.6328125 C-28.14165742 365.2254891 -38.94647702 365.40202405 -50 365 C-50.72848145 364.97486328 -51.45696289 364.94972656 -52.20751953 364.92382812 C-97.10200686 362.85583294 -141.53088227 338.66061582 -171.625 306.125 C-173.09913476 304.43028303 -174.55660375 302.72097245 -176 301 C-176.41958984 300.50338867 -176.83917969 300.00677734 -177.27148438 299.49511719 C-185.25034687 289.97289808 -191.87717749 279.79891228 -198 269 C-198.37253906 268.34306152 -198.74507812 267.68612305 -199.12890625 267.00927734 C-208.10324075 250.86954939 -217.44005143 229.72968888 -217 211 C-217.66 211 -218.32 211 -219 211 C-219.06058594 209.86820313 -219.12117188 208.73640625 -219.18359375 207.5703125 C-219.26799917 206.08852855 -219.35264717 204.6067584 -219.4375 203.125 C-219.49647461 202.00544922 -219.49647461 202.00544922 -219.55664062 200.86328125 C-219.71573624 196.80013136 -219.71573624 196.80013136 -221 193 C-221.09630516 191.30684623 -221.13075045 189.60995168 -221.1328125 187.9140625 C-221.13410156 186.90085937 -221.13539062 185.88765625 -221.13671875 184.84375 C-221.13285156 183.7815625 -221.12898438 182.719375 -221.125 181.625 C-221.13080078 180.04332031 -221.13080078 180.04332031 -221.13671875 178.4296875 C-221.13542969 177.41390625 -221.13414063 176.398125 -221.1328125 175.3515625 C-221.13168457 174.42166504 -221.13055664 173.49176758 -221.12939453 172.53369141 C-221.00989865 170.19382682 -220.60261671 168.25125193 -220 166 C-219.87290063 163.54274559 -219.77204619 161.0840863 -219.6875 158.625 C-219.36340053 151.84145046 -218.10852296 145.77727345 -216.03515625 139.28125 C-215.07782098 136.24667783 -214.29118007 133.20079724 -213.53393555 130.11132812 C-210.37649413 117.62593564 -206.055656 106.02806796 -199.91992188 94.71044922 C-199.11192262 93.20810241 -198.34184142 91.68549096 -197.578125 90.16015625 C-190.15602466 75.64340117 -179.92364094 63.14146905 -168.54541016 51.57617188 C-167.21454316 50.21881369 -165.90758687 48.83808587 -164.60546875 47.453125 C-141.79129739 23.58078243 -109.90336115 8.13257356 -78 1 C-76.97213379 0.76861328 -75.94426758 0.53722656 -74.88525391 0.29882812 C-50.55742785 -5.0090612 -24.18110332 -7.44033948 0 0 Z " fill="#00CCFE" transform="translate(1596,1956)"/>
<path d="M0 0 C0.66 0.33 1.32 0.66 2 1 C-3.9236496 7.85369121 -10.14630879 14.0763504 -17 20 C-17 17 -17 17 -15.43945312 15.09887695 C-14.37114258 14.05413208 -14.37114258 14.05413208 -13.28125 12.98828125 C-12.51425781 12.23095703 -11.74726562 11.47363281 -10.95703125 10.69335938 C-10.14621094 9.90767578 -9.33539062 9.12199219 -8.5 8.3125 C-7.68917969 7.51521484 -6.87835937 6.71792969 -6.04296875 5.89648438 C-4.03517797 3.9241252 -2.0207313 1.95908508 0 0 Z " fill="#01A1D0" transform="translate(1438,1997)"/>
</svg>
