<svg version="1.2" xmlns="http://www.w3.org/2000/svg" viewBox="0 0 1200 1200" width="1200" height="1200"><style>.a{fill:#f6f6f6}.b{fill:#b7b7b7}.c{fill:#20213a}</style><path fill-rule="evenodd" class="a" d="m91 11h1017c44.2 0 80 35.8 80 80v1017c0 44.2-35.8 80-80 80h-1017c-44.2 0-80-35.8-80-80v-1017c0-44.2 35.8-80 80-80z"/><path fill-rule="evenodd" class="b" d="m189.7 225.1h825.8v235.4c0 129.5-105.9 235.4-235.4 235.4h-354.9c-129.6 0-235.5-105.9-235.5-235.4z"/><path fill-rule="evenodd" class="a" d="m463.5 570.7c-61.5 0-111.2-49.7-111.2-111.2 0-61.5 49.7-111.3 111.2-111.3 61.5 0 111.2 49.8 111.2 111.3 0 61.5-49.7 111.2-111.2 111.2z"/><path fill-rule="evenodd" class="a" d="m784.2 528.2c-38 0-68.8-30.7-68.8-68.7 0-38 30.8-68.8 68.8-68.8 38 0 68.7 30.8 68.7 68.8 0 38-30.7 68.7-68.7 68.7z"/><path fill-rule="evenodd" class="b" d="m705.6 782.6c-14.3 44.6-56.3 76.9-105.8 76.9-49.5 0-91.5-32.3-105.8-76.9-2.7-8.3-1.4-16.5 3.7-23.5 5-7 12.5-10.7 21.1-10.7h162c8.6 0 16.1 3.7 21.1 10.7 5.1 7 6.4 15.2 3.7 23.5z"/><path fill-rule="evenodd" class="c" d="m990 542.8c-16.9 19.3-26.6 45.4-26.6 81v143.3c0 25.6-4.2 29.3-25.5 29.3h-55.9c-23.1 0-42 18.8-42 42v15.2c0 23.1 18.9 42 42 42h55.9c79.1 0 124.6-51.2 124.6-128.5v-143.3c0-13.4 7.4-20.2 18.4-23.8 15.3-4.9 36.9-6.6 60.1-7.3 22.7-0.5 40.8-19.2 40.8-41.9v-8-8c0-22.7-18.1-41.3-40.8-41.9-23.2-0.7-44.8-2.4-60.1-7.3-11-3.5-18.4-10.3-18.4-23.7v-143.3c0-77.4-45.5-128.5-124.6-128.5h-55.9c-23.1 0-42 18.9-42 41.9v15.3c0 23 18.9 41.9 42 41.9h55.9c21.3 0 25.5 3.8 25.5 29.4v143.3c0 35.5 9.7 61.7 26.6 80.9z"/><path fill-rule="evenodd" class="c" d="m59.9 492.9c23.2-0.7 44.8-2.4 60.1-7.3 11-3.5 18.4-10.3 18.4-23.7v-143.4c0-77.4 45.5-128.5 124.5-128.5h56c23.1 0 42 18.9 42 41.9v15.3c0 23-18.9 41.9-42 41.9h-56c-21.2 0-25.4 3.8-25.4 29.4v143.4c0 35.5-9.8 61.7-26.7 80.9 16.9 19.3 26.7 45.4 26.7 81v243.6c0 25.6 4.2 29.3 25.4 29.3h56c23.1 0 42 18.9 42 42v15.2c0 23.1-18.9 42-42 42h-56c-79 0-124.5-51.1-124.5-128.5v-243.6c0-13.4-7.4-20.2-18.4-23.8-15.3-4.9-36.9-6.6-60.1-7.3-22.8-0.5-40.9-19.2-40.9-41.9v-16c0-22.7 18.1-41.3 40.9-41.9z"/><path fill-rule="evenodd" class="c" d="m360.8 1028.6c-45.5 0-82.3-36.8-82.3-82.3 0-45.5 36.8-82.3 82.3-82.3 45.6 0 82.4 36.8 82.4 82.3 0 45.5-36.8 82.3-82.4 82.3z"/></svg>