<svg xmlns="http://www.w3.org/2000/svg" width="313.996" height="59.971" viewBox="0 0 313.996 59.971">
  <g id="Logo-Black" transform="translate(-123 -758)">
    <path id="Path_326" data-name="Path 326" d="M17974.2,23500.393l.664-1.393a6.431,6.431,0,0,0,4.129,1.451c2.164,0,3.09-.842,3.09-1.937,0-3.057-7.574-1.121-7.574-5.773,0-1.93,1.5-3.572,4.785-3.572a7.4,7.4,0,0,1,4.027,1.105l-.594,1.43a6.455,6.455,0,0,0-3.434-1.016c-2.125,0-3.039.895-3.039,1.984,0,3.061,7.586,1.143,7.586,5.738,0,1.914-1.539,3.563-4.848,3.563A7.409,7.409,0,0,1,17974.2,23500.393Zm-57.3-4.828a6.354,6.354,0,0,1,6.711-6.4,6.277,6.277,0,0,1,4.809,1.93l-1.109,1.107a4.966,4.966,0,0,0-3.633-1.447,4.812,4.812,0,1,0-.016,9.619,5.282,5.282,0,0,0,2.93-.807v-4.074h1.719v4.881a7.381,7.381,0,0,1-4.734,1.6A6.352,6.352,0,0,1,17916.895,23495.564Zm-23.883,0a6.657,6.657,0,1,1,6.668,6.408A6.358,6.358,0,0,1,17893.012,23495.564Zm1.789,0a4.864,4.864,0,1,0,4.879-4.807A4.707,4.707,0,0,0,17894.8,23495.564Zm-44.477,0a6.657,6.657,0,1,1,6.664,6.408A6.357,6.357,0,0,1,17850.324,23495.564Zm1.789,0a4.864,4.864,0,1,0,4.875-4.807A4.709,4.709,0,0,0,17852.113,23495.564Zm-69.758,0a6.328,6.328,0,0,1,6.633-6.4,6.168,6.168,0,0,1,4.758,1.949l-1.16,1.123a4.658,4.658,0,0,0-3.523-1.482,4.811,4.811,0,1,0,0,9.619,4.666,4.666,0,0,0,3.523-1.506l1.16,1.129a6.193,6.193,0,0,1-4.77,1.973A6.333,6.333,0,0,1,17782.355,23495.564Zm172.164,6.26v-12.514h8.832v1.551h-7.047v3.846h6.281v1.521h-6.281v4.037h7.3v1.559Zm-14.148,0v-12.514h1.793v12.514Zm-65.242,0v-12.514h1.785v10.955h6.777v1.559Zm-37.77,0-7.516-9.334v9.334h-1.789v-12.514h1.465l7.516,9.332v-9.332h1.785v12.514Zm-23.5,0v-5.58h-7.187v5.58h-1.789v-12.514h1.789v5.379h7.188v-5.379h1.789v12.514Zm-50.816,0v-12.514h8.84v1.551h-7.051v3.846h6.281v1.521h-6.281v4.037h7.3v1.559Zm-16.746,0v-10.963h-4.289v-1.551h10.355v1.551h-4.293v10.963Zm249.551-30.023a.954.954,0,0,1-1.055-1.055v-27.691a.955.955,0,0,1,1.055-1.053h23.09a.956.956,0,0,1,1.055,1.053v3.5a.958.958,0,0,1-1.055,1.057h-18.32v6.5h11.863a.958.958,0,0,1,1.055,1.053v3.08a.957.957,0,0,1-1.055,1.057h-11.863v6.879h18.32a.959.959,0,0,1,1.055,1.061v3.5a.956.956,0,0,1-1.055,1.055Zm-21.457,0a1.4,1.4,0,0,1-1.266-.674l-4.605-7.137h-10.379v6.756a.954.954,0,0,1-1.055,1.055h-3.754a.957.957,0,0,1-1.059-1.055v-27.691a.957.957,0,0,1,1.059-1.053h15.32c8.652,0,11.941,3.631,11.941,10.76v.639c0,5.152-1.645,8.65-6.164,10l5.023,7.135c.508.715.172,1.266-.668,1.266Zm-16.25-13.379h10.047c4.516,0,6.5-.76,6.5-5.068v-.545c0-4.393-1.9-5.193-6.5-5.193h-10.047Zm-84.656,13.379c-7,0-10-3.965-10-10.256v-9.244c0-6.326,3-10.3,10-10.3h9.418c7.008,0,10,3.973,10,10.3v.125a.956.956,0,0,1-1.051,1.061h-3.762c-.676,0-1.055-.3-1.055-.721v-.678c0-3.672-1.227-4.473-4.133-4.473h-9.418c-2.914,0-4.137.8-4.137,4.473v9.67c0,3.631,1.313,4.426,4.137,4.426h9.418c2.824,0,4.133-.795,4.133-4.426v-.8a.959.959,0,0,1,1.055-1.059h3.762c.672,0,1.051.3,1.051.807v.842c0,6.291-2.992,10.256-10,10.256Zm-52.191,0a.956.956,0,0,1-1.055-1.055v-27.691a.956.956,0,0,1,1.055-1.053h18.109c6.965,0,9.969,3.717,9.969,11.186v7.6c0,7.434-3,11.016-9.969,11.016Zm4.813-5.57h12.621c3.211,0,4.859-.883,4.859-5.527v-7.475c0-4.641-1.566-5.613-4.859-5.613h-12.621Zm-25.789,5.57a1.577,1.577,0,0,1-1.309-.633l-16.383-20.217v19.795a.955.955,0,0,1-1.051,1.055h-3.758a.955.955,0,0,1-1.059-1.055v-27.691a.956.956,0,0,1,1.059-1.053h3.8a1.6,1.6,0,0,1,1.309.633l16.375,20.35v-19.93a.955.955,0,0,1,1.055-1.053h3.758a.956.956,0,0,1,1.055,1.053v27.691a.956.956,0,0,1-1.055,1.055Zm-43.3,0a.957.957,0,0,1-1.059-1.055v-27.691a.957.957,0,0,1,1.059-1.053h3.715a.956.956,0,0,1,1.055,1.053v27.691a.956.956,0,0,1-1.055,1.055Zm-20.918,0a.959.959,0,0,1-1.059-1.055v-19.332l-9.156,14.689a1.434,1.434,0,0,1-1.262.719h-2.367a1.441,1.441,0,0,1-1.266-.719l-9.16-14.65v19.293a.955.955,0,0,1-1.059,1.055h-3.711a.957.957,0,0,1-1.059-1.055v-27.691a.957.957,0,0,1,1.059-1.053h4.559a1.434,1.434,0,0,1,1.262.715l10.6,17.27,10.555-17.27a1.443,1.443,0,0,1,1.262-.715h4.523a.953.953,0,0,1,1.051,1.053v27.691a.953.953,0,0,1-1.051,1.055Z" transform="translate(-17583 -22684.002)" fill="#090921"/>
    <g id="Group_741" data-name="Group 741" transform="translate(324.757 758)">
      <path id="Path_322" data-name="Path 322" d="M418.417,6.811A6.811,6.811,0,1,1,411.606,0a6.811,6.811,0,0,1,6.811,6.811" transform="translate(-404.796 0)" fill="#0f4dfd"/>
      <path id="Path_323" data-name="Path 323" d="M450.884,6.811A6.811,6.811,0,1,1,444.073,0a6.811,6.811,0,0,1,6.811,6.811" transform="translate(-421.081 0)" fill="#f51a1e"/>
      <path id="Path_324" data-name="Path 324" d="M418.417,39.277a6.811,6.811,0,1,1-6.811-6.811,6.811,6.811,0,0,1,6.811,6.811" transform="translate(-404.796 -16.284)" fill="#309e20"/>
      <path id="Path_325" data-name="Path 325" d="M450.884,39.277a6.811,6.811,0,1,1-6.811-6.811,6.811,6.811,0,0,1,6.811,6.811" transform="translate(-421.081 -16.284)" fill="#fbc000"/>
    </g>
  </g>
</svg>
